<svg xmlns="http://www.w3.org/2000/svg" version="1.1" width="1443px" height="1369px" style="shape-rendering:geometricPrecision; text-rendering:geometricPrecision; image-rendering:optimizeQuality; fill-rule:evenodd; clip-rule:evenodd" xmlns:xlink="http://www.w3.org/1999/xlink">
<g><path style="opacity:0.97" fill="#5d6c7c" d="M 339.5,-0.5 C 341.167,-0.5 342.833,-0.5 344.5,-0.5C 345.167,0.833333 345.833,0.833333 346.5,-0.5C 357.5,-0.5 368.5,-0.5 379.5,-0.5C 386.678,0.16661 394.011,0.833277 401.5,1.5C 411.16,3.34745 420.826,5.01411 430.5,6.5C 430.5,7.5 430.5,8.5 430.5,9.5C 433.572,9.18259 436.572,9.51592 439.5,10.5C 446.12,13.1029 452.786,15.4362 459.5,17.5C 459.5,18.5 459.5,19.5 459.5,20.5C 464.018,21.5731 468.351,23.2397 472.5,25.5C 477.543,29.5358 482.877,33.2024 488.5,36.5C 489.853,37.5237 490.52,38.857 490.5,40.5C 496.881,41.5472 500.547,45.2138 501.5,51.5C 502.833,51.5 504.167,51.5 505.5,51.5C 505.5,52.8333 505.5,54.1667 505.5,55.5C 508.36,56.0177 510.36,57.6843 511.5,60.5C 514.031,64.5523 515.698,68.8856 516.5,73.5C 517.5,73.5 518.5,73.5 519.5,73.5C 521.031,78.5001 522.697,83.5001 524.5,88.5C 525.484,91.4281 525.817,94.4281 525.5,97.5C 526.5,97.5 527.5,97.5 528.5,97.5C 530.267,113.449 530.767,129.449 530,145.5C 526.495,157.296 522.995,169.296 519.5,181.5C 518.5,181.5 517.5,181.5 516.5,181.5C 516.5,182.5 516.5,183.5 516.5,184.5C 518.167,184.5 519.833,184.5 521.5,184.5C 521.5,183.5 521.5,182.5 521.5,181.5C 541.754,177.666 561.754,173 581.5,167.5C 588.759,165.846 596.093,164.846 603.5,164.5C 603.5,163.5 603.5,162.5 603.5,161.5C 627.112,158.365 650.779,155.698 674.5,153.5C 674.5,152.5 674.5,151.5 674.5,150.5C 726.831,147.897 779.164,147.897 831.5,150.5C 831.5,151.5 831.5,152.5 831.5,153.5C 859.953,155.05 888.286,157.884 916.5,162C 916.957,162.414 917.291,162.914 917.5,163.5C 924.931,164.488 932.265,165.655 939.5,167C 957.996,172.499 976.663,177.332 995.5,181.5C 995.5,182.5 995.5,183.5 995.5,184.5C 998.466,184.11 1001.13,184.777 1003.5,186.5C 1003.83,184.167 1004.17,181.833 1004.5,179.5C 1003.72,174.348 1003.05,169.182 1002.5,164C 1003.81,151.358 1005.81,138.858 1008.5,126.5C 1009.5,126.5 1010.5,126.5 1011.5,126.5C 1014.86,112.144 1022.53,100.477 1034.5,91.5C 1035.39,90.675 1035.72,89.675 1035.5,88.5C 1041.23,87.1176 1045.56,83.7843 1048.5,78.5C 1052.4,76.9307 1056.07,74.9307 1059.5,72.5C 1061.05,71.5481 1062.71,71.2148 1064.5,71.5C 1064.48,69.857 1065.15,68.5237 1066.5,67.5C 1072.33,64.5681 1078.33,62.2348 1084.5,60.5C 1084.5,59.5 1084.5,58.5 1084.5,57.5C 1095.69,55.2547 1106.69,52.4213 1117.5,49C 1124.31,49.0034 1130.97,48.1701 1137.5,46.5C 1147.7,48.399 1158.04,49.0656 1168.5,48.5C 1168.5,49.5 1168.5,50.5 1168.5,51.5C 1181.91,53.0285 1195.24,55.0285 1208.5,57.5C 1208.5,58.5 1208.5,59.5 1208.5,60.5C 1220.82,63.1607 1233.15,65.8274 1245.5,68.5C 1245.5,69.5 1245.5,70.5 1245.5,71.5C 1254.66,73.8308 1263.66,76.4975 1272.5,79.5C 1272.5,80.5 1272.5,81.5 1272.5,82.5C 1278.51,84.5084 1284.51,86.5084 1290.5,88.5C 1290.5,89.5 1290.5,90.5 1290.5,91.5C 1296.91,94.0423 1303.24,96.8756 1309.5,100C 1310.98,101.983 1312.65,103.816 1314.5,105.5C 1321.44,109.44 1328.1,113.773 1334.5,118.5C 1336.34,122.337 1339.34,124.67 1343.5,125.5C 1346.34,127.653 1348.34,130.32 1349.5,133.5C 1352.45,135.089 1355.45,136.756 1358.5,138.5C 1362.14,142.14 1365.81,145.806 1369.5,149.5C 1370.32,150.386 1371.32,150.719 1372.5,150.5C 1372.28,151.675 1372.61,152.675 1373.5,153.5C 1384.28,163.271 1393.94,173.938 1402.5,185.5C 1405.67,191.678 1409.51,197.345 1414,202.5C 1416.7,207.997 1418.87,213.664 1420.5,219.5C 1421.5,219.5 1422.5,219.5 1423.5,219.5C 1424.7,224.415 1426.53,229.081 1429,233.5C 1430.34,237.752 1431.17,242.086 1431.5,246.5C 1432.5,246.5 1433.5,246.5 1434.5,246.5C 1436.93,257.787 1439.6,268.787 1442.5,279.5C 1442.5,300.167 1442.5,320.833 1442.5,341.5C 1439.74,348.674 1437.58,356.34 1436,364.5C 1435.09,366.439 1433.59,367.439 1431.5,367.5C 1431.34,370.748 1430.34,373.748 1428.5,376.5C 1426.32,378.869 1424.65,381.535 1423.5,384.5C 1420.07,386.071 1418.07,388.738 1417.5,392.5C 1402.35,408.309 1385.35,421.476 1366.5,432C 1357.86,434.603 1349.19,437.103 1340.5,439.5C 1338.97,440.861 1337.3,442.028 1335.5,443C 1331.3,443.895 1327.14,444.728 1323,445.5C 1320.91,445.464 1318.91,445.131 1317,444.5C 1315.27,445.74 1313.44,446.74 1311.5,447.5C 1309.67,446.349 1307.67,445.682 1305.5,445.5C 1304.9,450.93 1306.4,455.597 1310,459.5C 1312.05,466.093 1314.21,472.593 1316.5,479C 1315.83,480 1315.17,481 1314.5,482C 1316.97,486.736 1319.13,491.57 1321,496.5C 1321.31,499.372 1321.81,502.205 1322.5,505C 1322.17,506 1321.83,507 1321.5,508C 1325.37,522.503 1329.03,537.003 1332.5,551.5C 1332.45,553.1 1332.12,554.6 1331.5,556C 1332.59,563.91 1334.26,571.743 1336.5,579.5C 1335.75,581.64 1335.08,583.806 1334.5,586C 1335.92,592.57 1337.25,599.07 1338.5,605.5C 1337.76,608.317 1337.1,611.15 1336.5,614C 1337.47,618.284 1338.14,622.617 1338.5,627C 1338.44,630.276 1337.78,633.276 1336.5,636C 1337.8,640.582 1338.47,645.415 1338.5,650.5C 1338.68,657.52 1338.01,664.353 1336.5,671C 1336.99,674.204 1337.66,677.371 1338.5,680.5C 1338.14,682.608 1337.47,684.608 1336.5,686.5C 1339.71,691.028 1339.04,694.861 1334.5,698C 1335.98,699.299 1336.65,700.966 1336.5,703C 1335.83,705.333 1335.17,707.667 1334.5,710C 1334.83,711.167 1335.17,712.333 1335.5,713.5C 1340.95,718.27 1345.61,723.603 1349.5,729.5C 1350.5,729.5 1351.5,729.5 1352.5,729.5C 1352.24,730.978 1352.57,732.311 1353.5,733.5C 1356.01,735.328 1357.68,737.661 1358.5,740.5C 1362.87,741.871 1365.53,744.871 1366.5,749.5C 1370.9,752.085 1373.9,755.752 1375.5,760.5C 1381.5,765.999 1385.83,772.665 1388.5,780.5C 1389.52,781.853 1390.86,782.52 1392.5,782.5C 1395.17,789.168 1397.84,795.834 1400.5,802.5C 1401.5,802.5 1402.5,802.5 1403.5,802.5C 1405.52,809.86 1407.52,817.194 1409.5,824.5C 1410.5,824.5 1411.5,824.5 1412.5,824.5C 1415.92,835.965 1418.92,847.631 1421.5,859.5C 1422.09,859.709 1422.59,860.043 1423,860.5C 1425.3,876.76 1426.8,893.093 1427.5,909.5C 1426.53,927.538 1425.19,945.538 1423.5,963.5C 1422.5,963.5 1421.5,963.5 1420.5,963.5C 1420.82,967.226 1420.49,970.893 1419.5,974.5C 1417.07,984.176 1414.73,993.842 1412.5,1003.5C 1411.5,1003.5 1410.5,1003.5 1409.5,1003.5C 1408.38,1011.14 1406.38,1018.47 1403.5,1025.5C 1402.5,1025.5 1401.5,1025.5 1400.5,1025.5C 1399.92,1029.25 1398.92,1032.91 1397.5,1036.5C 1389.38,1051.04 1380.88,1065.38 1372,1079.5C 1367.84,1083.15 1364.67,1087.48 1362.5,1092.5C 1358.66,1094.34 1356.33,1097.34 1355.5,1101.5C 1353.41,1103.78 1351.07,1105.78 1348.5,1107.5C 1346.66,1109.51 1345.66,1111.84 1345.5,1114.5C 1344.17,1114.5 1342.83,1114.5 1341.5,1114.5C 1341.5,1115.83 1341.5,1117.17 1341.5,1118.5C 1340.5,1118.5 1339.5,1118.5 1338.5,1118.5C 1338.72,1119.68 1338.39,1120.68 1337.5,1121.5C 1332.5,1127.17 1327.17,1132.5 1321.5,1137.5C 1320.68,1138.39 1319.68,1138.72 1318.5,1138.5C 1316.66,1142.36 1313.99,1145.69 1310.5,1148.5C 1309.68,1149.39 1308.68,1149.72 1307.5,1149.5C 1305.65,1154.61 1301.98,1157.61 1296.5,1158.5C 1294.01,1164.32 1289.68,1167.98 1283.5,1169.5C 1283.02,1171.99 1281.69,1173.99 1279.5,1175.5C 1273.7,1180.11 1267.7,1184.44 1261.5,1188.5C 1260.15,1189.52 1259.48,1190.86 1259.5,1192.5C 1254.62,1194.38 1249.95,1196.71 1245.5,1199.5C 1244.35,1200.72 1243.35,1202.05 1242.5,1203.5C 1237.08,1206.42 1232.08,1209.92 1227.5,1214C 1223.72,1215.06 1220.39,1216.89 1217.5,1219.5C 1215.95,1220.45 1214.29,1220.79 1212.5,1220.5C 1212.52,1222.14 1211.85,1223.48 1210.5,1224.5C 1206.38,1225.73 1202.71,1227.73 1199.5,1230.5C 1197.95,1231.45 1196.29,1231.79 1194.5,1231.5C 1194.5,1232.5 1194.5,1233.5 1194.5,1234.5C 1189.37,1236.23 1184.37,1238.23 1179.5,1240.5C 1179.5,1241.5 1179.5,1242.5 1179.5,1243.5C 1173.33,1245.24 1167.33,1247.58 1161.5,1250.5C 1160.5,1251.5 1159.5,1252.5 1158.5,1253.5C 1146.67,1258.92 1135,1264.58 1123.5,1270.5C 1121.6,1271.47 1119.6,1271.8 1117.5,1271.5C 1117.5,1272.5 1117.5,1273.5 1117.5,1274.5C 1110.79,1276.56 1104.12,1278.9 1097.5,1281.5C 1095.26,1282.47 1092.92,1282.81 1090.5,1282.5C 1090.5,1283.5 1090.5,1284.5 1090.5,1285.5C 1081.96,1288.57 1073.3,1291.23 1064.5,1293.5C 1064.5,1294.5 1064.5,1295.5 1064.5,1296.5C 1056.03,1297.97 1047.7,1299.97 1039.5,1302.5C 1039.5,1303.5 1039.5,1304.5 1039.5,1305.5C 1030.7,1307.2 1022.03,1309.54 1013.5,1312.5C 1010.57,1313.48 1007.57,1313.82 1004.5,1313.5C 1004.5,1314.5 1004.5,1315.5 1004.5,1316.5C 993.902,1318.46 983.568,1321.3 973.5,1325C 959.567,1328.3 945.567,1331.13 931.5,1333.5C 931.5,1334.5 931.5,1335.5 931.5,1336.5C 913.919,1339.74 896.253,1342.41 878.5,1344.5C 878.5,1345.5 878.5,1346.5 878.5,1347.5C 862.233,1349.46 845.9,1351.8 829.5,1354.5C 829.291,1355.09 828.957,1355.59 828.5,1356C 784.889,1361.46 741.555,1365.63 698.5,1368.5C 658.833,1368.5 619.167,1368.5 579.5,1368.5C 569.347,1367.51 559.014,1367.17 548.5,1367.5C 548.5,1366.5 548.5,1365.5 548.5,1364.5C 527.746,1364.02 507.08,1362.36 486.5,1359.5C 461.265,1355.4 435.932,1351.4 410.5,1347.5C 410.5,1346.5 410.5,1345.5 410.5,1344.5C 395.012,1342.24 379.679,1339.57 364.5,1336.5C 364.5,1335.5 364.5,1334.5 364.5,1333.5C 356.068,1332.47 347.735,1330.81 339.5,1328.5C 325.908,1323.93 312.242,1319.76 298.5,1316C 297.221,1314.35 295.555,1313.19 293.5,1312.5C 281.843,1309.49 270.843,1305.16 260.5,1299.5C 249.579,1295.88 238.912,1291.38 228.5,1286C 226.833,1285.67 225.167,1285.33 223.5,1285C 217.359,1279.93 210.359,1276.43 202.5,1274.5C 202.5,1273.5 202.5,1272.5 202.5,1271.5C 196.958,1270.06 191.625,1268.06 186.5,1265.5C 186.5,1264.5 186.5,1263.5 186.5,1262.5C 180.089,1259.96 173.756,1257.12 167.5,1254C 166.687,1252.69 165.687,1251.52 164.5,1250.5C 161.069,1248.07 157.402,1246.07 153.5,1244.5C 152.147,1243.48 151.48,1242.14 151.5,1240.5C 146.973,1238.81 142.64,1236.81 138.5,1234.5C 138.5,1233.5 138.5,1232.5 138.5,1231.5C 133.318,1229.63 128.651,1226.97 124.5,1223.5C 124.5,1222.5 124.5,1221.5 124.5,1220.5C 123.022,1220.76 121.689,1220.43 120.5,1219.5C 118.792,1217.46 116.792,1215.79 114.5,1214.5C 112.679,1213.27 111.679,1211.61 111.5,1209.5C 108.845,1209.34 106.512,1208.34 104.5,1206.5C 94.8834,1197.07 85.5501,1187.4 76.5,1177.5C 75.675,1176.61 74.675,1176.28 73.5,1176.5C 71.9846,1170.32 68.3179,1165.99 62.5,1163.5C 62.5942,1159.58 60.9275,1156.58 57.5,1154.5C 56.5481,1152.95 56.2148,1151.29 56.5,1149.5C 55.325,1149.72 54.325,1149.39 53.5,1148.5C 50.6792,1145.53 48.3458,1142.2 46.5,1138.5C 45.4763,1137.15 44.143,1136.48 42.5,1136.5C 39.6298,1130.66 36.9632,1124.66 34.5,1118.5C 33.5,1118.5 32.5,1118.5 31.5,1118.5C 29.2705,1112.93 27.2705,1107.26 25.5,1101.5C 24.5,1101.5 23.5,1101.5 22.5,1101.5C 19.3689,1093.34 16.7022,1085 14.5,1076.5C 13.5,1076.5 12.5,1076.5 11.5,1076.5C 7.59804,1062.15 4.93137,1047.48 3.5,1032.5C 2.5,1032.5 1.5,1032.5 0.5,1032.5C 0.82404,1025.65 0.490707,1018.98 -0.5,1012.5C -0.5,1000.17 -0.5,987.833 -0.5,975.5C 0.327935,969.347 0.827935,963.013 1,956.5C 1.41395,956.043 1.91395,955.709 2.5,955.5C 4.74543,940.313 7.74543,925.313 11.5,910.5C 12.5,910.5 13.5,910.5 14.5,910.5C 15.8618,902.234 18.1951,894.234 21.5,886.5C 25.8963,879.703 29.2297,872.37 31.5,864.5C 32.5,864.5 33.5,864.5 34.5,864.5C 37.1511,857.841 39.8178,851.175 42.5,844.5C 44.143,844.52 45.4763,843.853 46.5,842.5C 48.1411,838.705 49.9745,835.038 52,831.5C 56.3552,828.464 59.5219,824.464 61.5,819.5C 62.5237,818.147 63.857,817.48 65.5,817.5C 65.238,816.022 65.5713,814.689 66.5,813.5C 71.181,809.102 73.5143,803.769 73.5,797.5C 75.7373,796.551 78.0706,795.884 80.5,795.5C 78.9672,787.504 77.3005,779.504 75.5,771.5C 74.914,771.291 74.414,770.957 74,770.5C 71.7945,752.875 69.9612,735.208 68.5,717.5C 67.1667,698.5 67.1667,679.5 68.5,660.5C 70.4983,642.184 72.165,623.851 73.5,605.5C 74.5,605.5 75.5,605.5 76.5,605.5C 77.7223,588.579 80.5557,571.912 85,555.5C 85.414,555.043 85.914,554.709 86.5,554.5C 88.6202,542.761 91.6202,531.428 95.5,520.5C 98.7769,508.868 101.777,497.201 104.5,485.5C 105.5,485.5 106.5,485.5 107.5,485.5C 107.192,483.076 107.526,480.743 108.5,478.5C 112.558,468.05 116.892,457.717 121.5,447.5C 122.919,443.914 123.919,440.247 124.5,436.5C 125.5,436.5 126.5,436.5 127.5,436.5C 129.252,430.32 131.586,424.32 134.5,418.5C 139.242,412.913 142.742,406.579 145,399.5C 146.314,398.687 147.481,397.687 148.5,396.5C 150.759,391.335 153.092,386.335 155.5,381.5C 156.5,381.5 157.5,381.5 158.5,381.5C 158.215,379.712 158.548,378.045 159.5,376.5C 162.679,372.572 165.013,368.238 166.5,363.5C 168.143,363.52 169.476,362.853 170.5,361.5C 171.21,358.219 172.877,355.552 175.5,353.5C 157.932,348.705 140.266,344.038 122.5,339.5C 122.5,338.5 122.5,337.5 122.5,336.5C 116.664,334.866 110.997,332.699 105.5,330C 103.561,329.092 102.561,327.592 102.5,325.5C 98.883,323.924 95.2163,322.257 91.5,320.5C 90.1468,319.476 89.4802,318.143 89.5,316.5C 87.712,316.785 86.0453,316.452 84.5,315.5C 81.0078,312.691 78.3411,309.357 76.5,305.5C 72.6425,303.659 69.3092,300.992 66.5,297.5C 65.6143,296.675 65.281,295.675 65.5,294.5C 64.5,294.5 63.5,294.5 62.5,294.5C 58.5847,285.671 54.4181,277.004 50,268.5C 47.5539,258.964 45.7206,249.297 44.5,239.5C 43.8076,238.975 43.3076,238.308 43,237.5C 42.3333,231.167 42.3333,224.833 43,218.5C 43.414,218.043 43.914,217.709 44.5,217.5C 45.8455,203.103 48.8455,189.103 53.5,175.5C 54.5,175.5 55.5,175.5 56.5,175.5C 56.9887,169.842 58.6554,164.508 61.5,159.5C 62.5237,158.147 63.857,157.48 65.5,157.5C 66.7077,152.063 68.8744,147.063 72,142.5C 72.9078,140.561 74.4078,139.561 76.5,139.5C 76.238,138.022 76.5713,136.689 77.5,135.5C 80.1116,132.916 82.1116,129.916 83.5,126.5C 87.8977,121.914 92.5644,117.581 97.5,113.5C 99.0922,111.316 100.426,108.982 101.5,106.5C 103.007,104.31 105.007,102.976 107.5,102.5C 109.53,97.4743 113.197,94.141 118.5,92.5C 121.167,88.5 124.5,85.1667 128.5,82.5C 129.386,81.675 129.719,80.675 129.5,79.5C 130.978,79.762 132.311,79.4287 133.5,78.5C 136.084,75.8884 139.084,73.8884 142.5,72.5C 143.853,71.4763 144.52,70.143 144.5,68.5C 149.383,66.6219 154.049,64.2886 158.5,61.5C 159.853,60.4763 160.52,59.143 160.5,57.5C 165.847,56.1612 170.847,54.1612 175.5,51.5C 175.5,50.5 175.5,49.5 175.5,48.5C 181.869,45.3238 188.535,42.6571 195.5,40.5C 195.5,39.5 195.5,38.5 195.5,37.5C 205.628,34.4616 215.295,30.4616 224.5,25.5C 231.045,23.2045 237.712,21.5378 244.5,20.5C 244.5,19.5 244.5,18.5 244.5,17.5C 256.965,13.9396 269.631,11.2729 282.5,9.5C 282.5,8.5 282.5,7.5 282.5,6.5C 301.575,3.66633 320.575,1.333 339.5,-0.5 Z"/></g>
<g><path style="opacity:1" fill="#f5f9fb" d="M 336.5,21.5 C 350.516,21.1674 364.516,21.5008 378.5,22.5C 392.426,24.9318 406.426,26.9318 420.5,28.5C 423.054,29.388 425.721,29.7214 428.5,29.5C 428.5,30.5 428.5,31.5 428.5,32.5C 436.437,34.0097 444.103,36.3431 451.5,39.5C 455.861,41.7969 459.861,44.6303 463.5,48C 468.297,49.7781 472.297,52.7781 475.5,57C 479.595,59.2595 483.262,62.0928 486.5,65.5C 490.157,70.9855 493.99,76.3188 498,81.5C 500.287,86.2938 501.787,91.2938 502.5,96.5C 505.03,105.179 506.03,114.179 505.5,123.5C 505.167,129.833 504.833,136.167 504.5,142.5C 502.56,150.721 500.894,159.055 499.5,167.5C 495.41,176.904 491.077,186.237 486.5,195.5C 485.167,195.5 483.833,195.5 482.5,195.5C 482.5,196.5 482.5,197.5 482.5,198.5C 476.925,200.188 471.258,201.521 465.5,202.5C 465.5,203.5 465.5,204.5 465.5,205.5C 457.103,207.855 449.103,211.189 441.5,215.5C 440.684,218.451 439.684,221.284 438.5,224C 439.86,226.27 440.527,228.77 440.5,231.5C 444.285,233.159 448.285,233.659 452.5,233C 456.919,230.561 461.586,228.727 466.5,227.5C 466.5,226.5 466.5,225.5 466.5,224.5C 474.302,222.51 481.969,220.176 489.5,217.5C 491.555,216.813 493.221,215.646 494.5,214C 502.818,211.459 511.151,209.292 519.5,207.5C 519.5,206.5 519.5,205.5 519.5,204.5C 529.977,201.953 540.643,199.953 551.5,198.5C 551.5,197.5 551.5,196.5 551.5,195.5C 560.629,194.402 569.629,192.735 578.5,190.5C 585.138,189.597 591.804,188.93 598.5,188.5C 598.5,187.5 598.5,186.5 598.5,185.5C 606.53,185.522 614.53,185.022 622.5,184C 622.957,183.586 623.291,183.086 623.5,182.5C 627.647,181.833 631.647,181.166 635.5,180.5C 639.373,178.57 643.706,177.903 648.5,178.5C 648.5,177.5 648.5,176.5 648.5,175.5C 667.733,172.846 687.066,171.513 706.5,171.5C 732.759,170.51 759.092,170.176 785.5,170.5C 796.115,171.454 806.782,171.787 817.5,171.5C 817.5,172.5 817.5,173.5 817.5,174.5C 831.981,174.142 846.315,175.142 860.5,177.5C 880.083,179.578 899.417,182.412 918.5,186C 925.696,187.984 932.696,189.817 939.5,191.5C 947.203,194.042 955.203,195.708 963.5,196.5C 970.372,199.397 977.705,201.563 985.5,203C 988.48,203.767 991.146,205.1 993.5,207C 999.735,209.025 1006.07,210.525 1012.5,211.5C 1012.5,212.5 1012.5,213.5 1012.5,214.5C 1014.2,214.34 1015.87,214.506 1017.5,215C 1021.29,217.601 1025.46,219.435 1030,220.5C 1033.07,220.519 1035.91,219.853 1038.5,218.5C 1040.23,214.342 1040.73,210.009 1040,205.5C 1036.14,200.778 1033.64,195.445 1032.5,189.5C 1031.5,189.5 1030.5,189.5 1029.5,189.5C 1028.4,183.498 1027.23,177.498 1026,171.5C 1025.33,163.833 1025.33,156.167 1026,148.5C 1029.45,140.766 1032.62,132.766 1035.5,124.5C 1037.33,122.844 1038.66,120.844 1039.5,118.5C 1044.08,115.33 1047.75,111.33 1050.5,106.5C 1056.34,103.668 1061.34,99.668 1065.5,94.5C 1069.56,92.4782 1073.23,89.9782 1076.5,87C 1086.13,82.5187 1095.79,78.3521 1105.5,74.5C 1110.49,73.668 1115.49,73.0014 1120.5,72.5C 1128.66,71.0561 1136.99,70.3895 1145.5,70.5C 1155.92,70.9411 1166.25,71.9411 1176.5,73.5C 1182.28,75.1102 1188.28,76.1102 1194.5,76.5C 1194.5,77.5 1194.5,78.5 1194.5,79.5C 1206.41,81.6005 1218.08,84.7672 1229.5,89C 1231.81,89.4966 1234.14,89.6633 1236.5,89.5C 1236.5,90.5 1236.5,91.5 1236.5,92.5C 1249.01,95.1058 1260.68,99.7724 1271.5,106.5C 1273.05,107.452 1274.71,107.785 1276.5,107.5C 1276.5,108.5 1276.5,109.5 1276.5,110.5C 1281.24,112.051 1285.91,113.885 1290.5,116C 1291.34,117.011 1291.67,118.178 1291.5,119.5C 1294.95,121.09 1298.61,122.09 1302.5,122.5C 1302.5,123.5 1302.5,124.5 1302.5,125.5C 1307.4,126.882 1311.4,129.715 1314.5,134C 1321.34,136.845 1327.01,141.178 1331.5,147C 1334.04,148.77 1336.71,150.27 1339.5,151.5C 1340.25,152.376 1340.75,153.376 1341,154.5C 1350.03,162.695 1358.86,171.029 1367.5,179.5C 1370.32,183.694 1373.82,187.361 1378,190.5C 1382.24,196.632 1386.24,202.965 1390,209.5C 1390.44,212.939 1392.11,215.606 1395,217.5C 1397.01,221.359 1398.51,225.359 1399.5,229.5C 1400.5,229.5 1401.5,229.5 1402.5,229.5C 1402.7,232.518 1403.04,235.518 1403.5,238.5C 1404.5,238.5 1405.5,238.5 1406.5,238.5C 1406.34,240.527 1406.5,242.527 1407,244.5C 1409.23,250.034 1411.73,255.367 1414.5,260.5C 1416.16,266.697 1417.83,272.697 1419.5,278.5C 1420.98,288.494 1421.65,298.661 1421.5,309C 1421.19,318.545 1420.52,328.045 1419.5,337.5C 1417.04,343.989 1415.04,350.656 1413.5,357.5C 1412.5,357.5 1411.5,357.5 1410.5,357.5C 1408.25,363.008 1405.25,368.008 1401.5,372.5C 1399.91,372.628 1398.58,373.295 1397.5,374.5C 1392.45,385.051 1384.45,392.217 1373.5,396C 1372.66,397.011 1372.33,398.178 1372.5,399.5C 1372.05,400.458 1371.38,401.292 1370.5,402C 1362.71,405.762 1354.71,408.595 1346.5,410.5C 1346.5,411.5 1346.5,412.5 1346.5,413.5C 1337.95,414.721 1329.62,416.721 1321.5,419.5C 1310.83,419.5 1300.17,419.5 1289.5,419.5C 1289.5,418.5 1289.5,417.5 1289.5,416.5C 1284.15,418.235 1278.49,419.235 1272.5,419.5C 1272.5,421.167 1272.5,422.833 1272.5,424.5C 1269.74,432.15 1271.58,438.483 1278,443.5C 1279.99,449.557 1282.16,455.557 1284.5,461.5C 1285.5,461.5 1286.5,461.5 1287.5,461.5C 1288.76,468.788 1290.26,476.122 1292,483.5C 1292.74,485.596 1293.9,487.263 1295.5,488.5C 1295.49,497.154 1297.16,505.487 1300.5,513.5C 1302.76,527.404 1305.43,541.071 1308.5,554.5C 1308.17,559.875 1308.51,565.208 1309.5,570.5C 1309.88,575.243 1310.88,579.576 1312.5,583.5C 1313.33,592.324 1313.83,601.324 1314,610.5C 1314.94,611.263 1315.44,612.263 1315.5,613.5C 1313.04,621.349 1313.04,629.183 1315.5,637C 1313.77,655.424 1312.77,673.924 1312.5,692.5C 1311.5,692.5 1310.5,692.5 1309.5,692.5C 1301.89,687.766 1294.55,682.266 1287.5,676C 1286.55,675.517 1285.55,675.351 1284.5,675.5C 1283.46,672.615 1281.46,670.448 1278.5,669C 1278.83,668.667 1279.17,668.333 1279.5,668C 1277.3,667.627 1275.14,667.127 1273,666.5C 1266.84,662.001 1260.68,657.501 1254.5,653C 1250.93,651.353 1247.27,649.853 1243.5,648.5C 1241.58,648.86 1239.91,649.694 1238.5,651C 1237.22,653.403 1235.39,655.237 1233,656.5C 1232.26,659.783 1232.92,662.783 1235,665.5C 1253.72,679.373 1272.89,692.707 1292.5,705.5C 1307.86,719.535 1322.86,734.035 1337.5,749C 1338.45,749.483 1339.45,749.649 1340.5,749.5C 1340.15,752.99 1341.65,755.323 1345,756.5C 1345.33,757.5 1345.67,758.5 1346,759.5C 1351.66,766.497 1357.33,773.497 1363,780.5C 1364.01,782.025 1364.51,783.692 1364.5,785.5C 1365.5,785.5 1366.5,785.5 1367.5,785.5C 1367.97,789.35 1368.97,793.017 1370.5,796.5C 1371.5,796.5 1372.5,796.5 1373.5,796.5C 1376.29,803.775 1378.96,811.109 1381.5,818.5C 1382.5,818.5 1383.5,818.5 1384.5,818.5C 1389.18,830.374 1393.68,842.374 1398,854.5C 1400.44,864.289 1401.94,874.289 1402.5,884.5C 1403.82,904.863 1403.82,925.196 1402.5,945.5C 1401.83,952.833 1401.17,960.167 1400.5,967.5C 1399.5,967.5 1398.5,967.5 1397.5,967.5C 1396.17,974.833 1394.83,982.167 1393.5,989.5C 1392.5,989.5 1391.5,989.5 1390.5,989.5C 1389.13,995.117 1387.63,1000.78 1386,1006.5C 1377.73,1023.38 1369.23,1040.04 1360.5,1056.5C 1359.5,1056.5 1358.5,1056.5 1357.5,1056.5C 1354.19,1064.84 1349.19,1072.18 1342.5,1078.5C 1341.68,1079.39 1340.68,1079.72 1339.5,1079.5C 1337,1085.91 1333,1091.25 1327.5,1095.5C 1326.54,1097.62 1325.38,1099.62 1324,1101.5C 1306.66,1119.34 1288.83,1136.67 1270.5,1153.5C 1265.25,1155.82 1260.91,1159.32 1257.5,1164C 1248.27,1168.78 1239.94,1174.78 1232.5,1182C 1228.42,1184.67 1224.42,1187.34 1220.5,1190C 1218.13,1190.86 1215.8,1191.69 1213.5,1192.5C 1213.5,1193.5 1213.5,1194.5 1213.5,1195.5C 1209.68,1196.58 1206.02,1197.91 1202.5,1199.5C 1202.5,1200.5 1202.5,1201.5 1202.5,1202.5C 1200.19,1202.99 1197.86,1203.33 1195.5,1203.5C 1195.5,1204.5 1195.5,1205.5 1195.5,1206.5C 1186.17,1210 1177.5,1214.84 1169.5,1221C 1168.21,1221.49 1166.87,1221.66 1165.5,1221.5C 1165.5,1222.5 1165.5,1223.5 1165.5,1224.5C 1164.13,1224.34 1162.79,1224.51 1161.5,1225C 1154.99,1227.81 1148.65,1231.14 1142.5,1235C 1140.21,1235.82 1137.88,1236.49 1135.5,1237C 1121.98,1245.89 1107.31,1252.39 1091.5,1256.5C 1091.5,1257.5 1091.5,1258.5 1091.5,1259.5C 1082.83,1262.68 1074.16,1266.18 1065.5,1270C 1059.82,1271.41 1054.15,1273.07 1048.5,1275C 1044.41,1277.75 1040.08,1280.08 1035.5,1282C 1021.01,1285.94 1006.84,1290.44 993,1295.5C 981.91,1298.81 970.744,1301.48 959.5,1303.5C 959.5,1304.5 959.5,1305.5 959.5,1306.5C 954.082,1306.72 948.748,1307.56 943.5,1309C 937.5,1310.67 931.5,1312.33 925.5,1314C 918.895,1315.4 912.228,1316.23 905.5,1316.5C 905.5,1317.5 905.5,1318.5 905.5,1319.5C 894.957,1320.55 884.624,1322.38 874.5,1325C 870.848,1325.5 867.182,1325.67 863.5,1325.5C 863.5,1326.5 863.5,1327.5 863.5,1328.5C 849.82,1329.76 836.153,1331.26 822.5,1333C 822.043,1333.41 821.709,1333.91 821.5,1334.5C 810.147,1335.75 799.147,1337.42 788.5,1339.5C 760.037,1340.89 731.704,1342.55 703.5,1344.5C 663.129,1345.82 622.796,1345.82 582.5,1344.5C 564.855,1343.73 547.188,1342.73 529.5,1341.5C 528.411,1339.88 526.744,1339.05 524.5,1339C 513.515,1338.13 502.515,1337.63 491.5,1337.5C 491.5,1336.5 491.5,1335.5 491.5,1334.5C 485.441,1334.75 479.441,1334.41 473.5,1333.5C 457.302,1331.2 440.969,1328.7 424.5,1326C 410.921,1323.65 397.588,1320.81 384.5,1317.5C 384.5,1316.5 384.5,1315.5 384.5,1314.5C 376.213,1313.18 367.879,1312.01 359.5,1311C 359.043,1310.59 358.709,1310.09 358.5,1309.5C 351.299,1307.47 343.966,1305.8 336.5,1304.5C 336.5,1303.5 336.5,1302.5 336.5,1301.5C 331.27,1301.48 326.604,1299.98 322.5,1297C 310.234,1293.38 297.901,1289.88 285.5,1286.5C 285.5,1285.5 285.5,1284.5 285.5,1283.5C 274.11,1281.45 263.443,1277.62 253.5,1272C 251.527,1271.5 249.527,1271.34 247.5,1271.5C 247.5,1270.5 247.5,1269.5 247.5,1268.5C 243.206,1267.17 238.872,1265.84 234.5,1264.5C 234.5,1263.5 234.5,1262.5 234.5,1261.5C 226.791,1259.24 219.458,1256.07 212.5,1252C 210.866,1251.51 209.199,1251.34 207.5,1251.5C 207.703,1249.61 207.037,1248.11 205.5,1247C 182.361,1235.88 161.028,1221.88 141.5,1205C 140.062,1204.78 138.729,1204.28 137.5,1203.5C 128.602,1195.28 119.602,1187.12 110.5,1179C 109.5,1178.67 108.5,1178.33 107.5,1178C 104.687,1174.02 101.353,1170.52 97.5,1167.5C 96.0499,1166.15 95.3832,1164.48 95.5,1162.5C 86.6592,1156.16 79.3259,1148.32 73.5,1139C 72.552,1138.52 71.552,1138.35 70.5,1138.5C 70.7977,1134.83 69.2977,1132.16 66,1130.5C 63.9973,1127.33 62.3306,1124 61,1120.5C 60.0922,1118.56 58.5922,1117.56 56.5,1117.5C 56.0723,1111.23 53.5723,1105.89 49,1101.5C 48.51,1100.21 48.3433,1098.87 48.5,1097.5C 47.5,1097.5 46.5,1097.5 45.5,1097.5C 45.1209,1092.35 44.1209,1087.35 42.5,1082.5C 41.5,1082.5 40.5,1082.5 39.5,1082.5C 38.2978,1078.95 37.6311,1075.29 37.5,1071.5C 36.5,1071.5 35.5,1071.5 34.5,1071.5C 33.4757,1064.7 31.809,1058.03 29.5,1051.5C 27.1181,1039.41 25.1181,1027.41 23.5,1015.5C 22.0672,995.401 22.7339,975.401 25.5,955.5C 25.335,952.15 25.5017,948.817 26,945.5C 26.414,945.043 26.914,944.709 27.5,944.5C 29.3819,936.541 31.0485,928.541 32.5,920.5C 33.5,920.5 34.5,920.5 35.5,920.5C 36.4588,914.457 37.9588,908.457 40,902.5C 42.3886,895.903 45.2219,889.57 48.5,883.5C 49.5,883.5 50.5,883.5 51.5,883.5C 51.5172,881.435 51.8505,879.435 52.5,877.5C 53.4584,877.047 54.2917,876.381 55,875.5C 56.686,871.571 58.186,867.571 59.5,863.5C 60.5,863.5 61.5,863.5 62.5,863.5C 62.3765,859.96 64.0432,857.96 67.5,857.5C 68.7136,852.967 70.3803,848.634 72.5,844.5C 73.829,842.198 75.1623,839.864 76.5,837.5C 77.325,836.614 78.325,836.281 79.5,836.5C 80.9144,831.899 83.4144,827.899 87,824.5C 87.49,823.207 87.6567,821.873 87.5,820.5C 89.3904,820.703 90.8904,820.037 92,818.5C 92.6108,816.25 93.9441,814.583 96,813.5C 96.49,812.207 96.6567,810.873 96.5,809.5C 98.7604,808.861 100.76,807.694 102.5,806C 103.071,804.795 103.738,803.628 104.5,802.5C 112.478,796.022 119.978,789.022 127,781.5C 127.483,780.552 127.649,779.552 127.5,778.5C 129.76,777.861 131.76,776.694 133.5,775C 134.654,772.427 136.32,770.261 138.5,768.5C 146.367,764.638 152.7,758.971 157.5,751.5C 159.535,750.959 161.535,750.292 163.5,749.5C 169.15,744.519 174.817,739.519 180.5,734.5C 180.833,733.167 181.167,731.833 181.5,730.5C 180.821,727.494 180.154,724.494 179.5,721.5C 178.167,721.5 176.833,721.5 175.5,721.5C 175.5,720.5 175.5,719.5 175.5,718.5C 166.778,718.696 159.778,722.362 154.5,729.5C 135.516,743.072 117.849,758.572 101.5,776C 101.167,776.167 100.833,776.333 100.5,776.5C 97.7777,770.885 96.7777,764.885 97.5,758.5C 96.5,758.5 95.5,758.5 94.5,758.5C 94.6658,753.821 94.4992,749.155 94,744.5C 93.2121,737.919 92.0454,731.586 90.5,725.5C 90.3334,702.164 90.5,678.831 91,655.5C 92.0437,654.377 92.7104,653.044 93,651.5C 93.7734,639.075 94.9401,626.741 96.5,614.5C 97.4834,610.702 97.8168,606.702 97.5,602.5C 98.5,602.5 99.5,602.5 100.5,602.5C 100.335,598.818 100.501,595.152 101,591.5C 102.489,582.302 104.823,573.302 108,564.5C 108.498,561.518 108.665,558.518 108.5,555.5C 109.5,555.5 110.5,555.5 111.5,555.5C 113.497,543.839 116.163,532.506 119.5,521.5C 119.337,519.143 119.503,516.81 120,514.5C 123.761,503.707 126.928,492.707 129.5,481.5C 130.5,481.5 131.5,481.5 132.5,481.5C 133.412,475.851 135.246,470.517 138,465.5C 138.495,463.527 138.662,461.527 138.5,459.5C 139.5,459.5 140.5,459.5 141.5,459.5C 144.101,453.351 146.268,447.018 148,440.5C 151.217,434.805 154.55,429.139 158,423.5C 159.591,421.073 160.425,418.407 160.5,415.5C 161.5,415.5 162.5,415.5 163.5,415.5C 163.995,411.017 165.995,407.35 169.5,404.5C 170.919,400.231 173.252,396.564 176.5,393.5C 177.678,390.609 178.345,387.609 178.5,384.5C 182.192,384.305 184.026,382.305 184,378.5C 185.019,377.313 186.186,376.313 187.5,375.5C 192.561,368.434 197.228,361.101 201.5,353.5C 204.936,349.943 208.603,346.609 212.5,343.5C 217.048,335.996 222.715,329.663 229.5,324.5C 233.805,319.859 238.139,315.193 242.5,310.5C 243.048,308.606 244.048,306.94 245.5,305.5C 249.14,303.191 252.473,300.524 255.5,297.5C 259.68,296.15 263.514,294.15 267,291.5C 267.499,287.179 267.666,282.846 267.5,278.5C 264.904,276.762 261.904,275.762 258.5,275.5C 254.828,276.177 251.162,276.844 247.5,277.5C 247.5,278.5 247.5,279.5 247.5,280.5C 245.323,280.586 243.323,281.253 241.5,282.5C 239.712,284.576 238.046,286.743 236.5,289C 234.275,289.561 232.275,290.561 230.5,292C 227.797,295.038 224.797,297.705 221.5,300C 218.667,303.5 215.5,306.667 212,309.5C 210.555,312.09 209.388,314.757 208.5,317.5C 203.736,320.422 199.403,324.088 195.5,328.5C 194.614,329.325 194.281,330.325 194.5,331.5C 186.914,330.1 179.247,329.267 171.5,329C 156.728,324.566 141.728,320.4 126.5,316.5C 126.5,315.5 126.5,314.5 126.5,313.5C 124.712,313.785 123.045,313.452 121.5,312.5C 112.454,307.66 104.121,301.827 96.5,295C 93.4605,293.969 90.9605,292.135 89,289.5C 87.0302,285.218 84.6968,281.218 82,277.5C 80.7432,275.254 78.9099,273.921 76.5,273.5C 73.9392,266.848 71.4392,260.182 69,253.5C 66.6214,241.365 65.9547,229.032 67,216.5C 68.541,207.451 70.3743,198.451 72.5,189.5C 73.5,189.5 74.5,189.5 75.5,189.5C 76.8102,184.253 77.8102,178.919 78.5,173.5C 79.5,173.5 80.5,173.5 81.5,173.5C 82.5731,168.982 84.2397,164.649 86.5,160.5C 87.5237,159.147 88.857,158.48 90.5,158.5C 90.2148,156.712 90.5481,155.045 91.5,153.5C 93.7185,149.108 96.8851,145.441 101,142.5C 103.276,136.728 107.109,132.394 112.5,129.5C 112.5,127.833 112.5,126.167 112.5,124.5C 115.5,124.833 116.833,123.5 116.5,120.5C 119.367,119.313 121.7,117.313 123.5,114.5C 129.555,111.456 134.555,107.123 138.5,101.5C 144.141,100.187 147.808,96.8534 149.5,91.5C 152.961,92.1105 155.628,90.9439 157.5,88C 160.748,87.9179 163.081,86.4179 164.5,83.5C 167.804,83.3223 169.471,81.6557 169.5,78.5C 173.032,76.2112 177.032,74.8779 181.5,74.5C 181.5,73.5 181.5,72.5 181.5,71.5C 186.5,69.5 191.5,67.5 196.5,65.5C 196.5,64.5 196.5,63.5 196.5,62.5C 197.873,62.6567 199.207,62.49 200.5,62C 212.247,56.2839 223.914,50.9506 235.5,46C 241.662,44.5004 247.662,42.5004 253.5,40C 255.81,39.5034 258.143,39.3367 260.5,39.5C 260.5,38.5 260.5,37.5 260.5,36.5C 271.266,33.6319 282.266,31.6319 293.5,30.5C 293.5,29.5 293.5,28.5 293.5,27.5C 308.266,26.3149 322.6,24.3149 336.5,21.5 Z"/></g>
<g><path style="opacity:1" fill="#b1bbc4" d="M 336.5,21.5 C 351.995,20.3387 367.661,20.172 383.5,21C 385.044,21.2896 386.377,21.9563 387.5,23C 398.748,24.0765 409.748,25.9098 420.5,28.5C 406.426,26.9318 392.426,24.9318 378.5,22.5C 364.516,21.5008 350.516,21.1674 336.5,21.5 Z"/></g>
<g><path style="opacity:1" fill="#a3adb7" d="M 1176.5,73.5 C 1166.25,71.9411 1155.92,70.9411 1145.5,70.5C 1136.99,70.3895 1128.66,71.0561 1120.5,72.5C 1122.7,71.8347 1125.03,71.1681 1127.5,70.5C 1138.82,69.3342 1150.15,69.1675 1161.5,70C 1166.76,70.778 1171.76,71.9447 1176.5,73.5 Z"/></g>
<g><path style="opacity:1" fill="#606e7e" d="M 445.5,125.5 C 449.672,148.06 446.005,169.393 434.5,189.5C 431.527,193.222 428.194,196.722 424.5,200C 421.518,200.498 418.518,200.665 415.5,200.5C 415.5,199.5 415.5,198.5 415.5,197.5C 414.5,197.5 413.5,197.5 412.5,197.5C 412.334,193.154 412.501,188.821 413,184.5C 415.781,179.995 418.281,175.329 420.5,170.5C 422.619,169.014 424.119,167.014 425,164.5C 425.494,162.866 425.66,161.199 425.5,159.5C 426.5,159.5 427.5,159.5 428.5,159.5C 428.5,150.833 428.5,142.167 428.5,133.5C 427.5,133.5 426.5,133.5 425.5,133.5C 425.498,129.173 424.165,125.507 421.5,122.5C 417.521,118.521 413.521,114.521 409.5,110.5C 405.632,108.435 401.632,106.769 397.5,105.5C 397.5,104.5 397.5,103.5 397.5,102.5C 367.903,94.8467 337.903,94.5134 307.5,101.5C 300.909,104.464 294.243,106.797 287.5,108.5C 282.235,110.543 276.902,112.21 271.5,113.5C 271.5,114.5 271.5,115.5 271.5,116.5C 269.801,116.34 268.134,116.506 266.5,117C 263.709,118.789 260.709,120.122 257.5,121C 253.192,124.159 248.859,127.325 244.5,130.5C 241.975,131.048 239.641,132.048 237.5,133.5C 225.801,143.203 214.801,153.536 204.5,164.5C 202.517,166.81 201.517,169.477 201.5,172.5C 200.07,172.421 198.736,172.754 197.5,173.5C 195.505,179.213 193.172,184.547 190.5,189.5C 187.786,198.858 186.953,208.524 188,218.5C 189.53,223.184 191.697,227.518 194.5,231.5C 196.736,232.389 198.736,233.722 200.5,235.5C 205.848,243.962 213.515,248.962 223.5,250.5C 226.428,251.484 229.428,251.817 232.5,251.5C 233.18,255.322 235.513,256.989 239.5,256.5C 239.5,260.167 239.5,263.833 239.5,267.5C 238.5,267.5 237.5,267.5 236.5,267.5C 236.5,268.833 236.5,270.167 236.5,271.5C 230.333,273.963 224,274.129 217.5,272C 211.565,269.123 205.565,266.29 199.5,263.5C 199.67,262.178 199.337,261.011 198.5,260C 185.195,254.53 176.195,245.03 171.5,231.5C 169.381,225.677 168.381,219.677 168.5,213.5C 167.5,213.5 166.5,213.5 165.5,213.5C 165.802,205.453 166.635,197.453 168,189.5C 168.667,188.833 169.333,188.167 170,187.5C 171.673,180.494 174.173,173.827 177.5,167.5C 178.524,166.147 179.857,165.48 181.5,165.5C 181.343,164.127 181.51,162.793 182,161.5C 184.201,159.256 185.701,156.589 186.5,153.5C 188.133,151.497 190.133,150.164 192.5,149.5C 192.215,147.712 192.548,146.045 193.5,144.5C 200.5,137.5 207.5,130.5 214.5,123.5C 220.183,118.662 226.516,114.829 233.5,112C 235.366,108.946 238.033,107.446 241.5,107.5C 241.5,106.5 241.5,105.5 241.5,104.5C 247.361,103.142 252.695,100.642 257.5,97C 259.473,96.5045 261.473,96.3379 263.5,96.5C 263.5,95.5 263.5,94.5 263.5,93.5C 268.612,91.7661 273.946,90.7661 279.5,90.5C 279.5,89.5 279.5,88.5 279.5,87.5C 288.694,84.9608 298.028,82.6274 307.5,80.5C 307.709,79.914 308.043,79.414 308.5,79C 323.77,77.0213 339.103,75.5213 354.5,74.5C 363.268,74.3599 371.935,75.1932 380.5,77C 380.957,77.414 381.291,77.914 381.5,78.5C 384.785,79.3236 388.118,79.8236 391.5,80C 398.716,82.805 406.049,85.305 413.5,87.5C 413.5,88.5 413.5,89.5 413.5,90.5C 417.241,91.7057 420.907,93.2057 424.5,95C 428,98.5 431.5,102 435,105.5C 435.909,108.513 436.742,111.513 437.5,114.5C 439.143,114.48 440.476,115.147 441.5,116.5C 442.644,119.704 443.977,122.704 445.5,125.5 Z"/></g>
<g><path style="opacity:1" fill="#cfd6dc" d="M 502.5,96.5 C 504.308,97.9179 504.975,99.9179 504.5,102.5C 505.5,102.5 506.5,102.5 507.5,102.5C 507.667,116.504 507.5,130.504 507,144.5C 505.591,150.078 504.425,155.744 503.5,161.5C 502.5,161.5 501.5,161.5 500.5,161.5C 500.795,163.735 500.461,165.735 499.5,167.5C 500.894,159.055 502.56,150.721 504.5,142.5C 504.833,136.167 505.167,129.833 505.5,123.5C 506.03,114.179 505.03,105.179 502.5,96.5 Z"/></g>
<g><path style="opacity:1" fill="#bcc6ce" d="M 287.5,108.5 C 286.263,110.097 284.596,111.263 282.5,112C 279.054,112.661 275.721,113.495 272.5,114.5C 272.5,115.5 272.5,116.5 272.5,117.5C 270.801,117.34 269.134,117.506 267.5,118C 264.709,119.789 261.709,121.122 258.5,122C 256.833,123 255.5,124.333 254.5,126C 251.247,127.771 247.914,129.271 244.5,130.5C 248.859,127.325 253.192,124.159 257.5,121C 260.709,120.122 263.709,118.789 266.5,117C 268.134,116.506 269.801,116.34 271.5,116.5C 271.5,115.5 271.5,114.5 271.5,113.5C 276.902,112.21 282.235,110.543 287.5,108.5 Z"/></g>
<g><path style="opacity:1" fill="#606f7f" d="M 369.5,124.5 C 371.5,124.5 373.5,124.5 375.5,124.5C 375.5,125.5 375.5,126.5 375.5,127.5C 376.5,127.5 377.5,127.5 378.5,127.5C 378.662,129.824 379.828,131.491 382,132.5C 382.667,134.833 382.667,137.167 382,139.5C 376.684,146.821 371.351,154.154 366,161.5C 364.989,162.337 363.822,162.67 362.5,162.5C 361.956,166.746 359.956,170.246 356.5,173C 355.552,173.483 354.552,173.649 353.5,173.5C 353.172,178.132 350.839,181.465 346.5,183.5C 344.939,188.641 341.939,192.641 337.5,195.5C 336.548,197.045 336.215,198.712 336.5,200.5C 330.836,203.332 326.669,207.665 324,213.5C 320.165,216.154 317.331,219.487 315.5,223.5C 308.693,225.664 301.693,225.997 294.5,224.5C 291.85,221.349 289.016,218.349 286,215.5C 286.095,210.332 284.262,209.332 280.5,212.5C 278.954,215.985 276.954,219.152 274.5,222C 273.552,222.483 272.552,222.649 271.5,222.5C 270.448,226.27 269.115,229.937 267.5,233.5C 266.325,233.281 265.325,233.614 264.5,234.5C 263.959,236.535 263.292,238.535 262.5,240.5C 259.581,244.374 256.248,247.874 252.5,251C 248.324,251.681 244.324,251.181 240.5,249.5C 239.751,245.181 239.585,240.848 240,236.5C 244.855,231.155 248.688,225.155 251.5,218.5C 255.567,213.098 259.234,207.431 262.5,201.5C 263.325,200.614 264.325,200.281 265.5,200.5C 265.215,198.712 265.548,197.045 266.5,195.5C 272.313,191.521 277.313,186.687 281.5,181C 284.263,180.45 286.93,179.617 289.5,178.5C 293.867,180.017 297.867,182.017 301.5,184.5C 303.152,190.29 303.819,196.29 303.5,202.5C 308.357,201.566 311.023,198.566 311.5,193.5C 312.552,193.649 313.552,193.483 314.5,193C 317.436,189.374 320.102,185.54 322.5,181.5C 323.325,180.614 324.325,180.281 325.5,180.5C 326.561,175.757 329.227,172.091 333.5,169.5C 335.158,166.839 336.824,164.173 338.5,161.5C 339.325,160.614 340.325,160.281 341.5,160.5C 341.788,155.543 344.121,151.876 348.5,149.5C 350.033,147.711 351.033,145.711 351.5,143.5C 354.044,142.532 356.211,140.865 358,138.5C 359.828,132.5 363.662,128.833 369.5,127.5C 369.5,126.5 369.5,125.5 369.5,124.5 Z"/></g>
<g><path style="opacity:1" fill="#606f7e" d="M 1193.5,140.5 C 1201.4,143.022 1209.4,145.355 1217.5,147.5C 1217.5,148.5 1217.5,149.5 1217.5,150.5C 1220.54,150.508 1223.54,150.841 1226.5,151.5C 1226.5,152.5 1226.5,153.5 1226.5,154.5C 1228.17,154.5 1229.83,154.5 1231.5,154.5C 1233.59,156.72 1236.26,158.22 1239.5,159C 1240.69,160.019 1241.69,161.186 1242.5,162.5C 1246.45,164.073 1250.11,166.073 1253.5,168.5C 1255.05,169.452 1256.71,169.785 1258.5,169.5C 1258.48,171.143 1259.15,172.476 1260.5,173.5C 1263.47,173.995 1265.8,175.495 1267.5,178C 1268.79,178.49 1270.13,178.657 1271.5,178.5C 1273.81,183.141 1277.48,186.474 1282.5,188.5C 1289.67,195.5 1296.83,202.5 1304,209.5C 1304.48,210.448 1304.65,211.448 1304.5,212.5C 1306.39,212.297 1307.89,212.963 1309,214.5C 1313.74,219.566 1318.07,224.899 1322,230.5C 1325.37,235.913 1328.21,241.58 1330.5,247.5C 1331.79,247.263 1332.79,247.596 1333.5,248.5C 1339.63,262.285 1345.3,275.952 1350.5,289.5C 1351.1,295.51 1352.1,301.51 1353.5,307.5C 1351.87,313.732 1351.2,320.065 1351.5,326.5C 1350.5,326.5 1349.5,326.5 1348.5,326.5C 1347.85,332.744 1346.18,338.744 1343.5,344.5C 1340.39,347.867 1337.39,351.367 1334.5,355C 1331.01,355.324 1329.01,357.158 1328.5,360.5C 1322.1,362.909 1315.77,365.409 1309.5,368C 1299.91,369.957 1290.25,370.623 1280.5,370C 1272.61,363.379 1272.61,356.546 1280.5,349.5C 1296.26,350.953 1310.26,346.953 1322.5,337.5C 1325.02,332.386 1327.69,327.386 1330.5,322.5C 1331.66,315.524 1331.83,308.524 1331,301.5C 1329.76,298.362 1329.09,295.028 1329,291.5C 1328.33,290.833 1327.67,290.167 1327,289.5C 1324.86,276.55 1319.52,265.216 1311,255.5C 1310.67,254.167 1310.33,252.833 1310,251.5C 1305.61,246.111 1301.61,240.444 1298,234.5C 1281.86,217.191 1264.36,201.524 1245.5,187.5C 1244.61,186.675 1244.28,185.675 1244.5,184.5C 1241.4,184.908 1239.07,183.741 1237.5,181C 1234.9,179.86 1232.23,179.027 1229.5,178.5C 1229.5,177.5 1229.5,176.5 1229.5,175.5C 1214.62,169.705 1199.62,164.205 1184.5,159C 1171.6,156.67 1158.6,156.004 1145.5,157C 1141.56,158.485 1137.56,159.652 1133.5,160.5C 1133.5,161.5 1133.5,162.5 1133.5,163.5C 1129.71,164.464 1126.21,166.13 1123,168.5C 1120.55,171.94 1118.55,175.607 1117,179.5C 1116.5,182.146 1116.34,184.813 1116.5,187.5C 1115.5,187.5 1114.5,187.5 1113.5,187.5C 1113.99,196.654 1113.32,205.654 1111.5,214.5C 1108.99,214.998 1106.49,215.664 1104,216.5C 1101.51,215.664 1099.01,214.998 1096.5,214.5C 1096.69,212.897 1096.19,211.563 1095,210.5C 1094.33,200.167 1094.33,189.833 1095,179.5C 1097.05,173.862 1099.22,168.195 1101.5,162.5C 1103.13,160.497 1105.13,159.164 1107.5,158.5C 1106.99,154.6 1108.66,152.267 1112.5,151.5C 1113.85,150.476 1114.52,149.143 1114.5,147.5C 1115.87,147.657 1117.21,147.49 1118.5,147C 1122.6,143.895 1126.93,141.228 1131.5,139C 1140.87,137.263 1150.37,135.763 1160,134.5C 1167.98,136.136 1176.15,136.969 1184.5,137C 1187.82,137.754 1190.82,138.92 1193.5,140.5 Z"/></g>
<g><path style="opacity:1" fill="#bcc5cd" d="M 1193.5,140.5 C 1196.9,140.18 1200.23,140.513 1203.5,141.5C 1208.38,143.633 1213.38,145.3 1218.5,146.5C 1218.5,147.5 1218.5,148.5 1218.5,149.5C 1223.82,149.045 1228.16,150.711 1231.5,154.5C 1229.83,154.5 1228.17,154.5 1226.5,154.5C 1226.5,153.5 1226.5,152.5 1226.5,151.5C 1223.54,150.841 1220.54,150.508 1217.5,150.5C 1217.5,149.5 1217.5,148.5 1217.5,147.5C 1209.4,145.355 1201.4,143.022 1193.5,140.5 Z"/></g>
<g><path style="opacity:1" fill="#919da8" d="M 421.5,122.5 C 424.165,125.507 425.498,129.173 425.5,133.5C 426.5,133.5 427.5,133.5 428.5,133.5C 428.5,142.167 428.5,150.833 428.5,159.5C 427.5,159.5 426.5,159.5 425.5,159.5C 425.66,161.199 425.494,162.866 425,164.5C 424.119,167.014 422.619,169.014 420.5,170.5C 428.051,154.844 428.384,138.844 421.5,122.5 Z"/></g>
<g><path style="opacity:1" fill="#7e8a98" d="M 706.5,169.5 C 732.997,168.336 759.664,168.17 786.5,169C 797.094,170.263 807.761,170.93 818.5,171C 819.624,171.249 820.624,171.749 821.5,172.5C 834.318,173.209 846.985,174.375 859.5,176C 860.056,176.383 860.389,176.883 860.5,177.5C 846.315,175.142 831.981,174.142 817.5,174.5C 817.5,173.5 817.5,172.5 817.5,171.5C 806.782,171.787 796.115,171.454 785.5,170.5C 759.339,169.502 733.005,169.169 706.5,169.5 Z"/></g>
<g><path style="opacity:1" fill="#bec6cd" d="M 706.5,169.5 C 733.005,169.169 759.339,169.502 785.5,170.5C 759.092,170.176 732.759,170.51 706.5,171.5C 706.5,170.833 706.5,170.167 706.5,169.5 Z"/></g>
<g><path style="opacity:1" fill="#bcc6ce" d="M 445.5,125.5 C 447.066,129.217 448.232,133.217 449,137.5C 449.667,141.833 449.667,146.167 449,150.5C 447.644,156.682 446.644,163.015 446,169.5C 442.372,175.765 439.538,182.431 437.5,189.5C 436.5,189.5 435.5,189.5 434.5,189.5C 446.005,169.393 449.672,148.06 445.5,125.5 Z"/></g>
<g><path style="opacity:1" fill="#bfc7ce" d="M 635.5,180.5 C 631.647,181.166 627.647,181.833 623.5,182.5C 623.291,183.086 622.957,183.586 622.5,184C 614.53,185.022 606.53,185.522 598.5,185.5C 598.5,186.5 598.5,187.5 598.5,188.5C 591.804,188.93 585.138,189.597 578.5,190.5C 580.948,189.527 583.615,189.194 586.5,189.5C 586.5,188.5 586.5,187.5 586.5,186.5C 602.823,184.38 619.157,182.38 635.5,180.5 Z"/></g>
<g><path style="opacity:1" fill="#a7b2bd" d="M 939.5,191.5 C 947.697,192.356 955.697,194.022 963.5,196.5C 955.203,195.708 947.203,194.042 939.5,191.5 Z"/></g>
<g><path style="opacity:1" fill="#a1adb7" d="M 190.5,189.5 C 188.772,198.719 188.272,208.052 189,217.5C 191.067,222.07 192.9,226.736 194.5,231.5C 191.697,227.518 189.53,223.184 188,218.5C 186.953,208.524 187.786,198.858 190.5,189.5 Z"/></g>
<g><path style="opacity:1" fill="#5f6e7e" d="M 1224.5,234.5 C 1228.06,235.423 1231.73,235.756 1235.5,235.5C 1235.5,236.5 1235.5,237.5 1235.5,238.5C 1239.01,238.458 1242.34,239.124 1245.5,240.5C 1246.5,245.463 1246.66,250.463 1246,255.5C 1244.97,257.361 1243.47,258.695 1241.5,259.5C 1240.61,260.325 1240.28,261.325 1240.5,262.5C 1234.68,265.16 1228.68,267.493 1222.5,269.5C 1221.83,270.5 1221.17,271.5 1220.5,272.5C 1223.43,273.484 1226.43,273.817 1229.5,273.5C 1229.5,274.5 1229.5,275.5 1229.5,276.5C 1237.08,277.156 1244.42,278.99 1251.5,282C 1254.15,282.497 1256.81,282.664 1259.5,282.5C 1259.5,283.5 1259.5,284.5 1259.5,285.5C 1269.91,287.203 1280.25,289.37 1290.5,292C 1293,294.5 1295.5,297 1298,299.5C 1298.5,301.473 1298.66,303.473 1298.5,305.5C 1297.5,305.5 1296.5,305.5 1295.5,305.5C 1294.74,309.668 1292.24,312.001 1288,312.5C 1281.41,311.708 1274.91,310.708 1268.5,309.5C 1268.5,308.5 1268.5,307.5 1268.5,306.5C 1254.13,302.963 1239.8,299.629 1225.5,296.5C 1225.5,295.5 1225.5,294.5 1225.5,293.5C 1215.02,292.208 1204.69,290.208 1194.5,287.5C 1194.5,286.5 1194.5,285.5 1194.5,284.5C 1191.44,284.072 1188.44,283.406 1185.5,282.5C 1185.5,280.833 1185.5,279.167 1185.5,277.5C 1184.5,277.5 1183.5,277.5 1182.5,277.5C 1182.5,273.833 1182.5,270.167 1182.5,266.5C 1183.55,266.649 1184.55,266.483 1185.5,266C 1190.3,260.316 1196.3,256.649 1203.5,255C 1202.5,254 1201.5,253 1200.5,252C 1181.23,249.193 1161.89,247.027 1142.5,245.5C 1142.5,244.5 1142.5,243.5 1142.5,242.5C 1140.02,242.677 1138.19,241.677 1137,239.5C 1136.94,236.237 1136.1,233.237 1134.5,230.5C 1135.61,229.735 1136.28,228.735 1136.5,227.5C 1146.37,225.327 1156.37,224.994 1166.5,226.5C 1175.66,227.204 1184.66,228.371 1193.5,230C 1194.67,230.419 1195.67,231.085 1196.5,232C 1201.02,232.065 1205.35,232.731 1209.5,234C 1214.49,234.499 1219.49,234.666 1224.5,234.5 Z"/></g>
<g><path style="opacity:1" fill="#b8c1c9" d="M 1224.5,234.5 C 1219.49,234.666 1214.49,234.499 1209.5,234C 1205.35,232.731 1201.02,232.065 1196.5,232C 1195.67,231.085 1194.67,230.419 1193.5,230C 1184.66,228.371 1175.66,227.204 1166.5,226.5C 1156.37,224.994 1146.37,225.327 1136.5,227.5C 1137.09,226.849 1137.76,226.182 1138.5,225.5C 1141.84,224.76 1145.17,224.094 1148.5,223.5C 1159.81,224.7 1171.14,225.867 1182.5,227C 1196.68,229.28 1210.68,231.78 1224.5,234.5 Z"/></g>
<g><path style="opacity:1" fill="#b0bac3" d="M 1333.5,248.5 C 1336.59,253.212 1339.75,257.878 1343,262.5C 1345.94,271.36 1348.44,280.36 1350.5,289.5C 1345.3,275.952 1339.63,262.285 1333.5,248.5 Z"/></g>
<g><path style="opacity:1" fill="#a4afb8" d="M 1419.5,278.5 C 1420.17,281.028 1420.83,283.694 1421.5,286.5C 1422.83,300.833 1422.83,315.167 1421.5,329.5C 1420.83,332.306 1420.17,334.972 1419.5,337.5C 1420.52,328.045 1421.19,318.545 1421.5,309C 1421.65,298.661 1420.98,288.494 1419.5,278.5 Z"/></g>
<g><path style="opacity:1" fill="#a4b1bc" d="M 242.5,310.5 C 238.139,315.193 233.805,319.859 229.5,324.5C 232.375,318.62 236.708,313.953 242.5,310.5 Z"/></g>
<g><path style="opacity:1" fill="#b0bfc9" d="M 1401.5,372.5 C 1394.69,384.643 1385.03,393.643 1372.5,399.5C 1372.33,398.178 1372.66,397.011 1373.5,396C 1384.45,392.217 1392.45,385.051 1397.5,374.5C 1398.58,373.295 1399.91,372.628 1401.5,372.5 Z"/></g>
<g><path style="opacity:1" fill="#c0cad1" d="M 1321.5,419.5 C 1316.18,420.166 1310.68,420.499 1305,420.5C 1298.72,420.415 1292.56,419.748 1286.5,418.5C 1283.31,419.865 1279.98,420.699 1276.5,421C 1274.65,421.69 1273.32,422.856 1272.5,424.5C 1272.5,422.833 1272.5,421.167 1272.5,419.5C 1278.49,419.235 1284.15,418.235 1289.5,416.5C 1289.5,417.5 1289.5,418.5 1289.5,419.5C 1300.17,419.5 1310.83,419.5 1321.5,419.5 Z"/></g>
<g><path style="opacity:1" fill="#a9b2bc" d="M 578.5,500.5 C 579.793,499.842 581.293,499.508 583,499.5C 588.673,500.481 594.173,501.981 599.5,504C 600.252,504.671 600.586,505.504 600.5,506.5C 593.698,502.837 586.365,500.837 578.5,500.5 Z"/></g>
<g><path style="opacity:1" fill="#5d6c7c" d="M 578.5,500.5 C 586.365,500.837 593.698,502.837 600.5,506.5C 606.794,512.604 610.794,519.937 612.5,528.5C 613.5,528.5 614.5,528.5 615.5,528.5C 616.192,534.267 617.358,539.933 619,545.5C 619.171,553.344 619.671,561.011 620.5,568.5C 621.439,584.472 621.772,600.472 621.5,616.5C 620.883,616.611 620.383,616.944 620,617.5C 619.658,634.65 618.824,651.65 617.5,668.5C 615.544,674.412 614.877,680.745 615.5,687.5C 614.5,687.5 613.5,687.5 612.5,687.5C 612.899,696.029 612.233,704.363 610.5,712.5C 609.549,713.919 609.216,715.585 609.5,717.5C 608.5,717.5 607.5,717.5 606.5,717.5C 606.5,718.833 606.5,720.167 606.5,721.5C 605.5,721.5 604.5,721.5 603.5,721.5C 602.951,723.901 602.118,726.235 601,728.5C 599.989,729.337 598.822,729.67 597.5,729.5C 597.341,736.454 596.008,743.121 593.5,749.5C 592.5,749.5 591.5,749.5 590.5,749.5C 589.299,753.264 587.799,756.93 586,760.5C 580.908,766.43 575.075,771.43 568.5,775.5C 565.811,777.621 562.811,779.288 559.5,780.5C 559.5,781.5 559.5,782.5 559.5,783.5C 552.074,786.194 544.741,789.194 537.5,792.5C 535.668,793.057 534.335,794.057 533.5,795.5C 532.081,796.451 530.415,796.784 528.5,796.5C 528.5,797.5 528.5,798.5 528.5,799.5C 510.424,804.628 492.091,808.628 473.5,811.5C 473.5,812.5 473.5,813.5 473.5,814.5C 463.99,815.785 454.323,816.618 444.5,817C 443.5,817.5 442.5,818 441.5,818.5C 440.337,823.802 440.171,829.136 441,834.5C 442.603,840.352 443.77,846.352 444.5,852.5C 445.5,852.5 446.5,852.5 447.5,852.5C 449.17,858.84 451.67,864.84 455,870.5C 455.495,872.473 455.662,874.473 455.5,876.5C 460.363,876.819 465.03,876.486 469.5,875.5C 484.204,873.877 498.871,871.877 513.5,869.5C 517.898,867.942 522.564,866.775 527.5,866C 533.196,865.83 538.862,865.33 544.5,864.5C 544.709,863.914 545.043,863.414 545.5,863C 560.423,860.149 575.423,857.316 590.5,854.5C 590.5,853.5 590.5,852.5 590.5,851.5C 602.313,850.621 613.647,848.287 624.5,844.5C 630.094,843.187 635.76,842.02 641.5,841C 644.503,840.251 647.169,839.085 649.5,837.5C 653.547,835.73 657.881,834.73 662.5,834.5C 662.5,833.5 662.5,832.5 662.5,831.5C 668.004,829.707 673.67,828.374 679.5,827.5C 679.5,826.5 679.5,825.5 679.5,824.5C 684.987,824.254 689.987,822.588 694.5,819.5C 705.144,816.343 715.144,811.843 724.5,806C 730.243,803.083 736.243,800.916 742.5,799.5C 742.5,798.5 742.5,797.5 742.5,796.5C 746.528,795.162 750.528,793.829 754.5,792.5C 754.5,791.5 754.5,790.5 754.5,789.5C 759.623,787.071 764.956,785.071 770.5,783.5C 770.561,781.408 771.561,779.908 773.5,779C 775.988,777.538 778.655,776.538 781.5,776C 783.037,774.89 783.703,773.39 783.5,771.5C 799.059,766.121 812.725,757.621 824.5,746C 828.421,745.881 831.088,744.048 832.5,740.5C 843.166,733.685 853.166,725.852 862.5,717C 863.5,716.667 864.5,716.333 865.5,716C 867.762,711.905 871.095,709.072 875.5,707.5C 876.853,706.476 877.52,705.143 877.5,703.5C 879.484,703.617 881.15,702.95 882.5,701.5C 888.676,694.135 895.51,687.468 903,681.5C 905.745,678.579 907.912,675.246 909.5,671.5C 910.325,670.614 911.325,670.281 912.5,670.5C 912.657,669.127 912.49,667.793 912,666.5C 904.171,659.144 898.671,650.477 895.5,640.5C 894.5,640.5 893.5,640.5 892.5,640.5C 891.086,632.619 889.753,624.619 888.5,616.5C 889.482,610.724 891.148,605.224 893.5,600C 900.09,598.148 905.59,599.648 910,604.5C 910.178,615.628 911.345,626.628 913.5,637.5C 914.5,637.5 915.5,637.5 916.5,637.5C 916.373,640.245 917.54,642.245 920,643.5C 920.494,645.134 920.66,646.801 920.5,648.5C 924.629,650.735 928.629,653.235 932.5,656C 935.833,657 939.167,658 942.5,659C 943.252,659.671 943.586,660.504 943.5,661.5C 948.148,662.336 952.814,663.336 957.5,664.5C 959.167,664.333 960.833,664.167 962.5,664C 963.056,663.617 963.389,663.117 963.5,662.5C 965.265,661.539 967.265,661.205 969.5,661.5C 969.5,660.5 969.5,659.5 969.5,658.5C 973.101,657.398 976.767,656.398 980.5,655.5C 982.94,656.893 985.607,657.727 988.5,658C 992.371,661.439 993.371,665.606 991.5,670.5C 988.749,673.422 985.415,675.422 981.5,676.5C 980.614,677.325 980.281,678.325 980.5,679.5C 964.567,684.828 948.567,684.828 932.5,679.5C 922.689,690.144 912.355,700.311 901.5,710C 897.401,715.77 892.401,720.436 886.5,724C 883.906,727.103 880.906,729.603 877.5,731.5C 876.614,732.325 876.281,733.325 876.5,734.5C 875.127,734.343 873.793,734.51 872.5,735C 869.672,738.829 866.005,741.496 861.5,743C 860.809,744.067 860.309,745.234 860,746.5C 855.948,747.886 852.781,750.386 850.5,754C 846.444,754.695 843.444,756.862 841.5,760.5C 837.314,760.757 834.314,762.757 832.5,766.5C 830.833,767.167 829.167,767.833 827.5,768.5C 825.582,771.427 822.916,773.094 819.5,773.5C 819.5,774.5 819.5,775.5 819.5,776.5C 810.681,782.414 801.348,787.58 791.5,792C 790.323,795.349 787.99,796.849 784.5,796.5C 784.5,797.5 784.5,798.5 784.5,799.5C 781.167,799.833 777.833,800.167 774.5,800.5C 774.703,802.39 774.037,803.89 772.5,805C 765.243,808.142 757.91,810.976 750.5,813.5C 750.5,814.5 750.5,815.5 750.5,816.5C 744.686,818.961 738.686,820.961 732.5,822.5C 732.5,823.5 732.5,824.5 732.5,825.5C 725.237,828.365 717.904,831.032 710.5,833.5C 710.5,834.5 710.5,835.5 710.5,836.5C 703.655,838.036 696.989,840.036 690.5,842.5C 690.5,843.5 690.5,844.5 690.5,845.5C 684.167,846.833 677.833,848.167 671.5,849.5C 671.5,850.5 671.5,851.5 671.5,852.5C 667.519,853.021 663.519,853.354 659.5,853.5C 659.5,854.5 659.5,855.5 659.5,856.5C 649.307,858.104 639.307,860.271 629.5,863C 627.146,864.9 624.48,866.233 621.5,867C 616.112,867.716 610.778,868.716 605.5,870C 605.043,870.414 604.709,870.914 604.5,871.5C 588.644,874.924 572.978,878.424 557.5,882C 553.848,882.499 550.182,882.665 546.5,882.5C 546.5,883.5 546.5,884.5 546.5,885.5C 538.413,886.324 530.413,887.658 522.5,889.5C 508.23,890.691 493.897,892.358 479.5,894.5C 479.291,895.086 478.957,895.586 478.5,896C 466.439,897.631 454.439,898.798 442.5,899.5C 396.797,901.259 351.13,900.259 305.5,896.5C 305.5,895.5 305.5,894.5 305.5,893.5C 304.127,893.657 302.793,893.49 301.5,893C 300.491,890.828 298.824,889.662 296.5,889.5C 296.822,887.278 296.155,885.444 294.5,884C 295.906,881.555 297.24,879.055 298.5,876.5C 301.968,874.676 305.635,873.676 309.5,873.5C 309.5,874.5 309.5,875.5 309.5,876.5C 315.271,875.887 320.604,876.554 325.5,878.5C 336.15,879.023 346.817,879.856 357.5,881C 380.337,881.83 403.004,881.663 425.5,880.5C 428.403,878.896 431.737,877.896 435.5,877.5C 431.181,869.199 427.181,860.865 423.5,852.5C 422.516,849.572 422.183,846.572 422.5,843.5C 421.482,835.246 420.816,826.913 420.5,818.5C 406.833,818.5 393.167,818.5 379.5,818.5C 371.415,816.485 363.081,815.152 354.5,814.5C 354.5,813.5 354.5,812.5 354.5,811.5C 342.335,809.738 330.668,806.405 319.5,801.5C 311.452,795.619 304.618,788.619 299,780.5C 293.923,765.178 295.423,750.511 303.5,736.5C 304.833,735.5 306.167,734.5 307.5,733.5C 304.206,729.197 300.872,724.864 297.5,720.5C 294.854,712.401 292.52,704.401 290.5,696.5C 290.5,690.5 290.5,684.5 290.5,678.5C 289.5,678.5 288.5,678.5 287.5,678.5C 287.5,670.833 287.5,663.167 287.5,655.5C 288.5,655.5 289.5,655.5 290.5,655.5C 290.5,645.833 290.5,636.167 290.5,626.5C 293,609.67 295.667,592.67 298.5,575.5C 299.5,575.5 300.5,575.5 301.5,575.5C 302.799,567.291 304.799,559.291 307.5,551.5C 308.5,551.5 309.5,551.5 310.5,551.5C 311.018,548.113 311.851,544.779 313,541.5C 313.71,540.027 314.876,539.36 316.5,539.5C 316.215,537.712 316.548,536.045 317.5,534.5C 319.765,531.917 321.765,529.084 323.5,526C 328.933,522.225 334.6,518.892 340.5,516C 351.799,514.897 362.799,516.23 373.5,520C 375.81,522.83 378.476,524.997 381.5,526.5C 385.521,534.38 388.688,542.714 391,551.5C 391.167,558 391.333,564.5 391.5,571C 389.095,601.033 386.262,630.866 383,660.5C 382.586,660.957 382.086,661.291 381.5,661.5C 380.697,667.878 379.031,673.878 376.5,679.5C 374.696,683.655 373.03,687.989 371.5,692.5C 368.418,693.13 365.418,694.13 362.5,695.5C 360.406,697.596 358.073,699.429 355.5,701C 350.271,702.948 345.271,705.448 340.5,708.5C 339.024,709.88 338.024,711.547 337.5,713.5C 338.333,713.833 339.167,714.167 340,714.5C 342.993,712.018 346.16,709.685 349.5,707.5C 351.782,706.777 354.116,706.443 356.5,706.5C 356.5,705.5 356.5,704.5 356.5,703.5C 363.951,700.94 371.284,698.107 378.5,695C 379.687,693.981 380.687,692.814 381.5,691.5C 388.09,689.19 394.423,686.857 400.5,684.5C 407.215,682.917 413.882,681.584 420.5,680.5C 431.073,679.189 441.74,678.356 452.5,678C 453.308,677.692 453.975,677.192 454.5,676.5C 474.155,675.5 493.822,675.167 513.5,675.5C 519.382,676.48 525.382,677.48 531.5,678.5C 531.5,679.5 531.5,680.5 531.5,681.5C 535.285,681.631 538.952,682.298 542.5,683.5C 542.5,684.5 542.5,685.5 542.5,686.5C 543.873,686.343 545.207,686.51 546.5,687C 550.012,689.256 553.679,691.256 557.5,693C 559.037,694.11 559.703,695.61 559.5,697.5C 563.83,698.138 567.497,700.138 570.5,703.5C 571.833,702.167 571.833,700.833 570.5,699.5C 566.018,696.231 561.685,692.731 557.5,689C 556.207,688.51 554.873,688.343 553.5,688.5C 553.5,687.5 553.5,686.5 553.5,685.5C 547.32,683.748 541.32,681.414 535.5,678.5C 533.257,677.526 530.924,677.192 528.5,677.5C 528.5,676.5 528.5,675.5 528.5,674.5C 526.5,674.5 524.5,674.5 522.5,674.5C 522.5,661.5 522.5,648.5 522.5,635.5C 523.5,635.5 524.5,635.5 525.5,635.5C 525.778,622.395 526.778,609.395 528.5,596.5C 529.206,587.102 530.706,577.768 533,568.5C 533.499,563.511 533.666,558.511 533.5,553.5C 534.5,553.5 535.5,553.5 536.5,553.5C 536.327,546.536 537.494,539.87 540,533.5C 543.206,528.336 546.206,523.003 549,517.5C 553.403,514.219 557.237,510.386 560.5,506C 566.045,504.226 571.711,502.893 577.5,502C 578.056,501.617 578.389,501.117 578.5,500.5 Z"/></g>
<g><path style="opacity:1" fill="#82929f" d="M 1295.5,488.5 C 1297.09,492.929 1298.09,497.595 1298.5,502.5C 1299.5,502.5 1300.5,502.5 1301.5,502.5C 1301.16,505.62 1301.82,508.453 1303.5,511C 1302.83,512.333 1302.17,513.667 1301.5,515C 1302.87,517.654 1303.87,520.487 1304.5,523.5C 1306.39,533.814 1308.05,544.148 1309.5,554.5C 1309.17,554.5 1308.83,554.5 1308.5,554.5C 1305.43,541.071 1302.76,527.404 1300.5,513.5C 1297.16,505.487 1295.49,497.154 1295.5,488.5 Z"/></g>
<g><path style="opacity:1" fill="#d6e7f0" d="M 599.5,556.5 C 602.777,556.216 605.943,556.549 609,557.5C 610.669,559.861 612.335,562.194 614,564.5C 614.175,567.157 614.008,569.824 613.5,572.5C 612.5,572.5 611.5,572.5 610.5,572.5C 610.5,574.167 610.5,575.833 610.5,577.5C 608.143,577.663 605.81,577.497 603.5,577C 601.182,575.007 598.516,573.841 595.5,573.5C 595.18,570.102 595.513,566.768 596.5,563.5C 598.009,561.344 599.009,559.01 599.5,556.5 Z"/></g>
<g><path style="opacity:1" fill="#627080" d="M 987.5,564.5 C 991.285,564.631 994.952,565.298 998.5,566.5C 998.916,569.406 999.582,572.239 1000.5,575C 999.918,577.665 998.918,580.165 997.5,582.5C 993.516,583.77 989.516,583.77 985.5,582.5C 981.005,577.696 980.338,572.362 983.5,566.5C 985.483,566.843 986.817,566.176 987.5,564.5 Z"/></g>
<g><path style="opacity:1" fill="#daebf3" d="M 372.5,568.5 C 383.249,568.393 387.415,573.393 385,583.5C 384.021,585.32 382.521,586.487 380.5,587C 376.152,587.415 371.819,587.249 367.5,586.5C 367.771,584.179 367.104,582.179 365.5,580.5C 367.019,578.444 367.853,576.11 368,573.5C 369.707,571.963 371.207,570.296 372.5,568.5 Z"/></g>
<g><path style="opacity:1" fill="#bfcbd3" d="M 1308.5,554.5 C 1308.83,554.5 1309.17,554.5 1309.5,554.5C 1310.17,560.012 1311.17,565.345 1312.5,570.5C 1312.5,574.833 1312.5,579.167 1312.5,583.5C 1310.88,579.576 1309.88,575.243 1309.5,570.5C 1308.51,565.208 1308.17,559.875 1308.5,554.5 Z"/></g>
<g><path style="opacity:1" fill="#9da8b2" d="M 620.5,568.5 C 621.831,576.138 622.498,584.138 622.5,592.5C 622.5,600.674 622.166,608.674 621.5,616.5C 621.772,600.472 621.439,584.472 620.5,568.5 Z"/></g>
<g><path style="opacity:1" fill="#647382" d="M 940.5,582.5 C 951.178,581.877 955.345,586.877 953,597.5C 950.755,600.907 947.588,602.24 943.5,601.5C 940.378,601.149 937.378,600.482 934.5,599.5C 934.173,594.786 934.507,590.12 935.5,585.5C 937.145,584.304 938.811,583.304 940.5,582.5 Z"/></g>
<g><path style="opacity:1" fill="#b8c1c9" d="M 119.5,521.5 C 116.163,532.506 113.497,543.839 111.5,555.5C 110.5,555.5 109.5,555.5 108.5,555.5C 108.665,558.518 108.498,561.518 108,564.5C 104.823,573.302 102.489,582.302 101,591.5C 100.501,595.152 100.335,598.818 100.5,602.5C 99.5,602.5 98.5,602.5 97.5,602.5C 97.8168,606.702 97.4834,610.702 96.5,614.5C 96.5,610.167 96.5,605.833 96.5,601.5C 97.5,601.5 98.5,601.5 99.5,601.5C 99.5631,590.95 100.73,580.617 103,570.5C 106.912,566.004 108.412,560.671 107.5,554.5C 108.5,554.5 109.5,554.5 110.5,554.5C 112.573,543.465 114.573,532.465 116.5,521.5C 117.5,521.5 118.5,521.5 119.5,521.5 Z"/></g>
<g><path style="opacity:1" fill="#677584" d="M 977.5,610.5 C 982.412,609.974 987.078,610.641 991.5,612.5C 995.151,627.518 989.818,632.184 975.5,626.5C 972.269,620.573 972.936,615.239 977.5,610.5 Z"/></g>
<g><path style="opacity:1" fill="#647382" d="M 946.5,621.5 C 949.167,621.5 951.833,621.5 954.5,621.5C 954.662,623.824 955.828,625.491 958,626.5C 960.245,631.174 959.745,635.508 956.5,639.5C 951.478,640.666 946.478,640.499 941.5,639C 939.175,634.697 938.841,630.197 940.5,625.5C 943.292,625.378 945.292,624.044 946.5,621.5 Z"/></g>
<g><path style="opacity:0.987" fill="#8c9ba8" d="M 1312.5,570.5 C 1313.6,578.341 1314.6,586.341 1315.5,594.5C 1316.83,624.167 1316.83,653.833 1315.5,683.5C 1314.76,686.836 1314.09,690.17 1313.5,693.5C 1311.97,694.421 1310.64,694.088 1309.5,692.5C 1310.5,692.5 1311.5,692.5 1312.5,692.5C 1312.77,673.924 1313.77,655.424 1315.5,637C 1313.04,629.183 1313.04,621.349 1315.5,613.5C 1315.44,612.263 1314.94,611.263 1314,610.5C 1313.83,601.324 1313.33,592.324 1312.5,583.5C 1312.5,579.167 1312.5,574.833 1312.5,570.5 Z"/></g>
<g><path style="opacity:1" fill="#bcc4cc" d="M 290.5,626.5 C 290.5,636.167 290.5,645.833 290.5,655.5C 289.5,655.5 288.5,655.5 287.5,655.5C 287.5,663.167 287.5,670.833 287.5,678.5C 288.5,678.5 289.5,678.5 290.5,678.5C 290.5,684.5 290.5,690.5 290.5,696.5C 289.833,691.319 289.167,685.985 288.5,680.5C 287.914,680.291 287.414,679.957 287,679.5C 286.5,671.173 286.334,662.84 286.5,654.5C 287.5,654.5 288.5,654.5 289.5,654.5C 289.173,644.985 289.506,635.652 290.5,626.5 Z"/></g>
<g><path style="opacity:1" fill="#8d99a5" d="M 96.5,614.5 C 94.9401,626.741 93.7734,639.075 93,651.5C 92.7104,653.044 92.0437,654.377 91,655.5C 90.5,678.831 90.3334,702.164 90.5,725.5C 89.3368,701.337 89.1701,677.003 90,652.5C 91.2943,646.003 91.961,639.336 92,632.5C 92.6667,631.833 93.3333,631.167 94,630.5C 93.8777,624.74 94.711,619.407 96.5,614.5 Z"/></g>
<g><path style="opacity:1" fill="#9baab6" d="M 943.5,661.5 C 950.159,661.954 956.826,662.287 963.5,662.5C 963.389,663.117 963.056,663.617 962.5,664C 960.833,664.167 959.167,664.333 957.5,664.5C 952.814,663.336 948.148,662.336 943.5,661.5 Z"/></g>
<g><path style="opacity:1" fill="#8c97a3" d="M 513.5,675.5 C 493.822,675.167 474.155,675.5 454.5,676.5C 453.975,677.192 453.308,677.692 452.5,678C 441.74,678.356 431.073,679.189 420.5,680.5C 424.898,678.942 429.564,677.775 434.5,677C 460.956,674.526 487.289,674.026 513.5,675.5 Z"/></g>
<g><path style="opacity:1" fill="#c5d3dc" d="M 528.5,596.5 C 526.778,609.395 525.778,622.395 525.5,635.5C 524.5,635.5 523.5,635.5 522.5,635.5C 522.5,648.5 522.5,661.5 522.5,674.5C 524.5,674.5 526.5,674.5 528.5,674.5C 528.5,675.5 528.5,676.5 528.5,677.5C 530.924,677.192 533.257,677.526 535.5,678.5C 541.32,681.414 547.32,683.748 553.5,685.5C 553.5,686.5 553.5,687.5 553.5,688.5C 554.873,688.343 556.207,688.51 557.5,689C 561.685,692.731 566.018,696.231 570.5,699.5C 571.833,700.833 571.833,702.167 570.5,703.5C 567.497,700.138 563.83,698.138 559.5,697.5C 559.703,695.61 559.037,694.11 557.5,693C 553.679,691.256 550.012,689.256 546.5,687C 545.207,686.51 543.873,686.343 542.5,686.5C 542.5,685.5 542.5,684.5 542.5,683.5C 538.952,682.298 535.285,681.631 531.5,681.5C 531.5,680.5 531.5,679.5 531.5,678.5C 525.382,677.48 519.382,676.48 513.5,675.5C 516.167,675.5 518.833,675.5 521.5,675.5C 521.485,655.139 522.152,634.805 523.5,614.5C 524.5,614.5 525.5,614.5 526.5,614.5C 525.88,608.074 526.547,602.074 528.5,596.5 Z"/></g>
<g><path style="opacity:1" fill="#8a9aa7" d="M 447.5,690.5 C 467.297,688.751 486.964,689.417 506.5,692.5C 486.994,690.795 467.328,690.129 447.5,690.5 Z"/></g>
<g><path style="opacity:1" fill="#deeff7" d="M 447.5,690.5 C 467.328,690.129 486.994,690.795 506.5,692.5C 510.592,694.048 514.926,695.548 519.5,697C 526.501,705.024 525.168,711.358 515.5,716C 508.972,715.196 502.305,714.363 495.5,713.5C 477.167,712.167 458.833,712.167 440.5,713.5C 440.291,714.086 439.957,714.586 439.5,715C 432.299,716.478 424.965,717.478 417.5,718C 412.665,719.809 407.665,721.142 402.5,722C 394.368,724.12 386.701,727.287 379.5,731.5C 375.889,730.738 372.222,730.238 368.5,730C 368,729.5 367.5,729 367,728.5C 366.501,724.514 366.334,720.514 366.5,716.5C 367.5,716.5 368.5,716.5 369.5,716.5C 369.5,715.167 369.5,713.833 369.5,712.5C 373.833,711.167 378.167,709.833 382.5,708.5C 382.5,707.5 382.5,706.5 382.5,705.5C 387.279,705.136 391.946,704.136 396.5,702.5C 400.685,700.48 405.019,698.813 409.5,697.5C 422.516,695.524 435.183,693.191 447.5,690.5 Z"/></g>
<g><path style="opacity:1" fill="#9da9b3" d="M 617.5,668.5 C 617.302,683.679 614.969,698.346 610.5,712.5C 612.233,704.363 612.899,696.029 612.5,687.5C 613.5,687.5 614.5,687.5 615.5,687.5C 614.877,680.745 615.544,674.412 617.5,668.5 Z"/></g>
<g><path style="opacity:1" fill="#cbdbe4" d="M 376.5,679.5 C 376.276,683.179 375.942,686.846 375.5,690.5C 378.025,689.36 380.692,688.693 383.5,688.5C 383.5,687.5 383.5,686.5 383.5,685.5C 385.954,685.679 388.121,685.013 390,683.5C 393.441,684.382 396.941,684.716 400.5,684.5C 394.423,686.857 388.09,689.19 381.5,691.5C 380.687,692.814 379.687,693.981 378.5,695C 371.284,698.107 363.951,700.94 356.5,703.5C 356.5,704.5 356.5,705.5 356.5,706.5C 354.116,706.443 351.782,706.777 349.5,707.5C 346.16,709.685 342.993,712.018 340,714.5C 339.167,714.167 338.333,713.833 337.5,713.5C 338.024,711.547 339.024,709.88 340.5,708.5C 345.271,705.448 350.271,702.948 355.5,701C 358.073,699.429 360.406,697.596 362.5,695.5C 365.418,694.13 368.418,693.13 371.5,692.5C 373.03,687.989 374.696,683.655 376.5,679.5 Z"/></g>
<g><path style="opacity:1" fill="#b3bec7" d="M 568.5,775.5 C 566.733,778.679 564.066,780.679 560.5,781.5C 560.5,782.5 560.5,783.5 560.5,784.5C 551.581,788.362 542.581,792.029 533.5,795.5C 534.335,794.057 535.668,793.057 537.5,792.5C 544.741,789.194 552.074,786.194 559.5,783.5C 559.5,782.5 559.5,781.5 559.5,780.5C 562.811,779.288 565.811,777.621 568.5,775.5 Z"/></g>
<g><path style="opacity:1" fill="#aab6bf" d="M 379.5,818.5 C 393.167,818.5 406.833,818.5 420.5,818.5C 420.816,826.913 421.482,835.246 422.5,843.5C 421.504,843.586 420.671,843.252 420,842.5C 419.677,836.317 419.177,830.15 418.5,824C 418.559,822.564 418.892,821.231 419.5,820C 405.994,819.831 392.66,819.331 379.5,818.5 Z"/></g>
<g><path style="opacity:1" fill="#a7b1ba" d="M 649.5,837.5 C 647.169,839.085 644.503,840.251 641.5,841C 635.76,842.02 630.094,843.187 624.5,844.5C 632.426,841.429 640.76,839.096 649.5,837.5 Z"/></g>
<g><path style="opacity:1" fill="#bac3cb" d="M 72.5,844.5 C 70.3803,848.634 68.7136,852.967 67.5,857.5C 64.0432,857.96 62.3765,859.96 62.5,863.5C 61.5,863.5 60.5,863.5 59.5,863.5C 58.186,867.571 56.686,871.571 55,875.5C 54.2917,876.381 53.4584,877.047 52.5,877.5C 55.2395,872.842 57.2395,867.842 58.5,862.5C 59.5,862.5 60.5,862.5 61.5,862.5C 62.8333,858.833 64.1667,855.167 65.5,851.5C 66.5,851.5 67.5,851.5 68.5,851.5C 68.687,849.436 69.187,847.436 70,845.5C 70.6708,844.748 71.5041,844.414 72.5,844.5 Z"/></g>
<g><path style="opacity:1" fill="#a6b0ba" d="M 513.5,869.5 C 498.871,871.877 484.204,873.877 469.5,875.5C 479.93,873.355 490.596,871.521 501.5,870C 505.486,869.501 509.486,869.334 513.5,869.5 Z"/></g>
<g><path style="opacity:1" fill="#98a4ae" d="M 325.5,878.5 C 358.816,879.843 392.15,880.509 425.5,880.5C 403.004,881.663 380.337,881.83 357.5,881C 346.817,879.856 336.15,879.023 325.5,878.5 Z"/></g>
<g><path style="opacity:1" fill="#b8c1c8" d="M 1402.5,884.5 C 1403.12,884.611 1403.62,884.944 1404,885.5C 1404.17,895.5 1404.33,905.5 1404.5,915.5C 1404.5,925.856 1403.83,935.856 1402.5,945.5C 1403.82,925.196 1403.82,904.863 1402.5,884.5 Z"/></g>
<g><path style="opacity:1" fill="#c2cbd2" d="M 522.5,889.5 C 503.343,892.693 484.01,895.86 464.5,899C 457.174,899.5 449.841,899.666 442.5,899.5C 454.439,898.798 466.439,897.631 478.5,896C 478.957,895.586 479.291,895.086 479.5,894.5C 493.897,892.358 508.23,890.691 522.5,889.5 Z"/></g>
<g><path style="opacity:1" fill="#606e7e" d="M 62.5,974.5 C 61.1732,990.672 61.1732,1007 62.5,1023.5C 63.5039,1030.04 64.8372,1036.38 66.5,1042.5C 67.3686,1044.72 67.702,1047.05 67.5,1049.5C 68.5,1049.5 69.5,1049.5 70.5,1049.5C 72.4796,1056.81 74.4796,1064.14 76.5,1071.5C 77.5,1071.5 78.5,1071.5 79.5,1071.5C 81.3769,1077.23 83.5436,1082.9 86,1088.5C 89.5821,1091.32 91.9154,1094.99 93,1099.5C 96.148,1102.47 98.8146,1105.8 101,1109.5C 101.49,1110.79 101.657,1112.13 101.5,1113.5C 105.831,1114.85 107.831,1117.85 107.5,1122.5C 119.684,1131.99 131.017,1142.66 141.5,1154.5C 146.066,1156.4 149.733,1159.4 152.5,1163.5C 156.104,1164.68 159.438,1166.35 162.5,1168.5C 163.386,1169.32 163.719,1170.32 163.5,1171.5C 168.715,1171.22 171.048,1173.72 170.5,1179C 170.157,1182.31 169.324,1185.47 168,1188.5C 163.921,1189.63 159.755,1189.8 155.5,1189C 154.383,1187.11 152.716,1186.27 150.5,1186.5C 150.5,1185.5 150.5,1184.5 150.5,1183.5C 148.801,1183.66 147.134,1183.49 145.5,1183C 121.647,1164.48 100.48,1143.31 82,1119.5C 79.1295,1114.75 76.6295,1109.75 74.5,1104.5C 73.1861,1103.69 72.0195,1102.69 71,1101.5C 69.8604,1098.9 69.0271,1096.23 68.5,1093.5C 67.5,1093.5 66.5,1093.5 65.5,1093.5C 62.9918,1085.9 59.9918,1078.57 56.5,1071.5C 55.6914,1067.24 54.1914,1063.24 52,1059.5C 51.5034,1057.19 51.3367,1054.86 51.5,1052.5C 50.5,1052.5 49.5,1052.5 48.5,1052.5C 48.8504,1043.47 47.1837,1035.13 43.5,1027.5C 42.5476,1021.93 42.2143,1016.26 42.5,1010.5C 41.5,1010.5 40.5,1010.5 39.5,1010.5C 39.3336,1001.49 39.5002,992.494 40,983.5C 40.9147,982.672 41.5814,981.672 42,980.5C 41.7847,974.024 43.1181,968.024 46,962.5C 46.4955,960.527 46.6621,958.527 46.5,956.5C 49.0027,952.533 51.1694,948.2 53,943.5C 55.3729,940.593 58.3729,938.593 62,937.5C 68.1466,937.484 71.6466,940.484 72.5,946.5C 68.5362,955.753 65.2028,965.087 62.5,974.5 Z"/></g>
<g><path style="opacity:1" fill="#b0bac3" d="M 25.5,955.5 C 22.7339,975.401 22.0672,995.401 23.5,1015.5C 22.7784,1015.08 22.2784,1014.42 22,1013.5C 21.1673,1000.15 21.334,986.821 22.5,973.5C 22.861,967.111 23.861,961.111 25.5,955.5 Z"/></g>
<g><path style="opacity:1" fill="#c2cad0" d="M 46.5,956.5 C 46.6621,958.527 46.4955,960.527 46,962.5C 43.1181,968.024 41.7847,974.024 42,980.5C 41.5814,981.672 40.9147,982.672 40,983.5C 39.5002,992.494 39.3336,1001.49 39.5,1010.5C 40.5,1010.5 41.5,1010.5 42.5,1010.5C 42.2143,1016.26 42.5476,1021.93 43.5,1027.5C 41.8688,1022.9 40.8688,1017.9 40.5,1012.5C 39.914,1012.29 39.414,1011.96 39,1011.5C 38.2299,996.77 38.8965,982.103 41,967.5C 43.5608,964.132 45.3941,960.465 46.5,956.5 Z"/></g>
<g><path style="opacity:1" fill="#b6bfc6" d="M 62.5,974.5 C 62.1672,990.514 62.5006,1006.51 63.5,1022.5C 64.9169,1029.12 65.9169,1035.79 66.5,1042.5C 64.8372,1036.38 63.5039,1030.04 62.5,1023.5C 61.1732,1007 61.1732,990.672 62.5,974.5 Z"/></g>
<g><path style="opacity:1" fill="#606f7f" d="M 1096.5,1220.5 C 1091.96,1222.52 1087.29,1224.18 1082.5,1225.5C 1082.5,1226.5 1082.5,1227.5 1082.5,1228.5C 1079.92,1228.03 1077.92,1228.69 1076.5,1230.5C 1071.83,1231.83 1067.17,1233.17 1062.5,1234.5C 1062.5,1235.5 1062.5,1236.5 1062.5,1237.5C 1058.84,1237 1055.84,1238.17 1053.5,1241C 1049.42,1241.86 1045.42,1243.03 1041.5,1244.5C 1038.36,1246.57 1035.03,1248.4 1031.5,1250C 1025.55,1251.82 1019.55,1253.32 1013.5,1254.5C 1013.5,1255.5 1013.5,1256.5 1013.5,1257.5C 1007.14,1258.78 1000.8,1260.28 994.5,1262C 991.582,1262.85 988.916,1264.18 986.5,1266C 981.786,1267.26 977.786,1266.26 974.5,1263C 973.552,1262.52 972.552,1262.35 971.5,1262.5C 971.5,1257.83 971.5,1253.17 971.5,1248.5C 973.167,1248.5 974.833,1248.5 976.5,1248.5C 976.561,1246.41 977.561,1244.91 979.5,1244C 988.736,1241.69 997.736,1239.03 1006.5,1236C 1008.47,1235.5 1010.47,1235.34 1012.5,1235.5C 1012.5,1234.5 1012.5,1233.5 1012.5,1232.5C 1014.2,1232.66 1015.87,1232.49 1017.5,1232C 1028.19,1227.67 1039.19,1223.84 1050.5,1220.5C 1050.5,1219.5 1050.5,1218.5 1050.5,1217.5C 1057.15,1215.51 1063.82,1213.51 1070.5,1211.5C 1070.5,1210.5 1070.5,1209.5 1070.5,1208.5C 1081.67,1203.19 1093.01,1198.19 1104.5,1193.5C 1104.5,1192.5 1104.5,1191.5 1104.5,1190.5C 1110.49,1188.51 1116.49,1186.51 1122.5,1184.5C 1122.5,1183.5 1122.5,1182.5 1122.5,1181.5C 1126.18,1180.16 1129.85,1178.83 1133.5,1177.5C 1133.5,1176.5 1133.5,1175.5 1133.5,1174.5C 1137.35,1173.67 1141.18,1172.67 1145,1171.5C 1147.13,1170.46 1148.96,1168.96 1150.5,1167C 1151.45,1166.52 1152.45,1166.35 1153.5,1166.5C 1153.28,1165.32 1153.61,1164.32 1154.5,1163.5C 1156.54,1162.96 1158.54,1162.29 1160.5,1161.5C 1162.75,1160.18 1164.75,1158.52 1166.5,1156.5C 1168.05,1155.55 1169.71,1155.21 1171.5,1155.5C 1171.56,1153.41 1172.56,1151.91 1174.5,1151C 1177.6,1148.87 1180.93,1147.37 1184.5,1146.5C 1184.56,1144.41 1185.56,1142.91 1187.5,1142C 1191.17,1140.17 1194.83,1138.33 1198.5,1136.5C 1199.72,1134.02 1201.72,1133.02 1204.5,1133.5C 1206.11,1129.4 1209.11,1126.9 1213.5,1126C 1221.37,1118.44 1230.04,1112.11 1239.5,1107C 1243.35,1101.1 1248.35,1096.6 1254.5,1093.5C 1260.2,1086.62 1266.87,1080.78 1274.5,1076C 1281.25,1070.44 1286.58,1063.94 1290.5,1056.5C 1293.61,1054.52 1296.44,1052.19 1299,1049.5C 1300.98,1044.03 1304.48,1040.03 1309.5,1037.5C 1310.83,1034.17 1312.17,1030.83 1313.5,1027.5C 1314.5,1027.5 1315.5,1027.5 1316.5,1027.5C 1317.04,1024.45 1317.87,1021.45 1319,1018.5C 1320.98,1014.89 1323.15,1011.39 1325.5,1008C 1327.4,1007.8 1328.9,1006.97 1330,1005.5C 1332.8,1007.62 1335.96,1008.95 1339.5,1009.5C 1340.05,1019.7 1337.22,1028.7 1331,1036.5C 1328.7,1044.41 1324.37,1051.08 1318,1056.5C 1315.79,1062.04 1312.13,1066.38 1307,1069.5C 1305.56,1071.27 1304.56,1073.27 1304,1075.5C 1291.67,1087.66 1278.84,1099.32 1265.5,1110.5C 1264.49,1114.01 1262.15,1115.85 1258.5,1116C 1255.79,1118.37 1253.46,1121.04 1251.5,1124C 1247.45,1126.13 1243.79,1128.8 1240.5,1132C 1238.87,1132.49 1237.2,1132.66 1235.5,1132.5C 1235.72,1133.68 1235.39,1134.68 1234.5,1135.5C 1231.97,1138.23 1228.97,1140.23 1225.5,1141.5C 1224.61,1142.32 1224.28,1143.32 1224.5,1144.5C 1219.89,1146.74 1215.22,1149.07 1210.5,1151.5C 1209.75,1152.74 1209.42,1154.07 1209.5,1155.5C 1208.13,1155.34 1206.79,1155.51 1205.5,1156C 1198.3,1162.15 1190.3,1167.15 1181.5,1171C 1179.56,1171.91 1178.56,1173.41 1178.5,1175.5C 1177.13,1175.34 1175.79,1175.51 1174.5,1176C 1170.81,1178.65 1166.81,1180.82 1162.5,1182.5C 1161.15,1183.52 1160.48,1184.86 1160.5,1186.5C 1155.83,1187.83 1151.17,1189.17 1146.5,1190.5C 1146.7,1192.39 1146.04,1193.89 1144.5,1195C 1140.89,1196.65 1137.22,1198.15 1133.5,1199.5C 1133.5,1200.5 1133.5,1201.5 1133.5,1202.5C 1123.26,1205.84 1113.59,1210.34 1104.5,1216C 1103.21,1216.49 1101.87,1216.66 1100.5,1216.5C 1100.5,1217.5 1100.5,1218.5 1100.5,1219.5C 1098.9,1219.23 1097.57,1219.57 1096.5,1220.5 Z"/></g>
<g><path style="opacity:1" fill="#afb8c0" d="M 43.5,1027.5 C 47.1837,1035.13 48.8504,1043.47 48.5,1052.5C 49.5,1052.5 50.5,1052.5 51.5,1052.5C 51.3367,1054.86 51.5034,1057.19 52,1059.5C 54.1914,1063.24 55.6914,1067.24 56.5,1071.5C 54.6921,1070.08 54.0254,1068.08 54.5,1065.5C 53.5,1065.5 52.5,1065.5 51.5,1065.5C 50.1022,1058.33 48.2689,1051.33 46,1044.5C 44.6969,1038.89 43.8636,1033.22 43.5,1027.5 Z"/></g>
<g><path style="opacity:1" fill="#abb4bd" d="M 1096.5,1220.5 C 1095.66,1221.94 1094.33,1222.94 1092.5,1223.5C 1089.58,1224.87 1086.58,1225.87 1083.5,1226.5C 1083.5,1227.5 1083.5,1228.5 1083.5,1229.5C 1081.05,1229.3 1078.72,1229.63 1076.5,1230.5C 1077.92,1228.69 1079.92,1228.03 1082.5,1228.5C 1082.5,1227.5 1082.5,1226.5 1082.5,1225.5C 1087.29,1224.18 1091.96,1222.52 1096.5,1220.5 Z"/></g>
<g><path style="opacity:1" fill="#939fab" d="M 473.5,1333.5 C 479.441,1334.41 485.441,1334.75 491.5,1334.5C 491.5,1335.5 491.5,1336.5 491.5,1337.5C 502.515,1337.63 513.515,1338.13 524.5,1339C 526.744,1339.05 528.411,1339.88 529.5,1341.5C 515.173,1340.41 500.84,1339.41 486.5,1338.5C 486.5,1337.5 486.5,1336.5 486.5,1335.5C 482.486,1335.67 478.486,1335.5 474.5,1335C 473.944,1334.62 473.611,1334.12 473.5,1333.5 Z"/></g>
<g><path style="opacity:1" fill="#a3adb7" d="M 788.5,1339.5 C 740.729,1344.34 692.562,1346.68 644,1346.5C 623.833,1346.33 603.667,1346.17 583.5,1346C 582.944,1345.62 582.611,1345.12 582.5,1344.5C 622.796,1345.82 663.129,1345.82 703.5,1344.5C 731.704,1342.55 760.037,1340.89 788.5,1339.5 Z"/></g>
</svg>
