<svg width="426" height="85" viewBox="0 0 426 85" fill="none" xmlns="http://www.w3.org/2000/svg">
<g clip-path="url(#clip0_605_8)">
<path d="M425.2 69.63H419.31V84.56H415.11V69.63H409.25V66.16H425.2V69.63ZM407.24 81.14V84.56H393V66.16H406.9V69.58H397.23V73.57H405.77V76.88H397.23V81.14H407.24ZM389.86 69.63H383.97V84.56H379.77V69.63H373.91V66.16H389.86V69.63ZM353.76 66.16H357.99V78.14L366.77 66.16H370.77V84.56H366.57V72.59L357.79 84.55H353.77V66.16H353.76ZM342.92 84.87C341.05 84.87 339.35 84.46 337.84 83.65C336.32 82.84 335.13 81.71 334.27 80.26C333.4 78.82 332.97 77.18 332.97 75.36C332.97 73.54 333.4 71.9 334.27 70.46C335.14 69.01 336.33 67.88 337.84 67.07C339.36 66.26 341.06 65.85 342.95 65.85C344.54 65.85 345.99 66.13 347.27 66.69C348.56 67.25 349.64 68.06 350.51 69.11L347.78 71.63C346.54 70.19 344.99 69.47 343.15 69.47C342.01 69.47 340.99 69.72 340.1 70.22C339.21 70.72 338.51 71.41 338.01 72.31C337.51 73.2 337.26 74.22 337.26 75.36C337.26 76.5 337.51 77.51 338.01 78.41C338.51 79.3 339.2 80 340.1 80.5C341 81 342.01 81.25 343.15 81.25C344.99 81.25 346.53 80.52 347.78 79.07L350.51 81.59C349.63 82.66 348.55 83.47 347.25 84.04C345.97 84.59 344.52 84.87 342.92 84.87ZM322.47 76.01C323.75 76.01 324.72 75.73 325.39 75.18C326.05 74.63 326.39 73.84 326.39 72.83C326.39 71.8 326.06 71 325.39 70.45C324.72 69.9 323.75 69.62 322.47 69.62H319V76.01H322.47ZM322.71 66.16C324.34 66.16 325.75 66.43 326.96 66.97C328.16 67.51 329.08 68.28 329.73 69.28C330.38 70.28 330.7 71.46 330.7 72.83C330.7 74.18 330.38 75.36 329.73 76.36C329.08 77.37 328.16 78.14 326.96 78.67C325.76 79.2 324.34 79.47 322.71 79.47H319V84.54H314.74V66.14H322.71V66.16ZM310.84 81.14V84.56H296.6V66.16H310.5V69.58H300.83V73.57H309.37V76.88H300.83V81.14H310.84ZM285.47 81.4C287.47 81.4 288.47 80.61 288.47 79.04C288.47 77.51 287.47 76.75 285.47 76.75H280.79V81.4H285.47ZM280.8 73.78H284.77C285.7 73.78 286.4 73.59 286.87 73.22C287.34 72.84 287.58 72.29 287.58 71.55C287.58 70.83 287.34 70.28 286.86 69.89C286.38 69.5 285.68 69.31 284.77 69.31H280.8V73.78ZM289.31 74.96C290.43 75.29 291.29 75.84 291.88 76.59C292.48 77.34 292.78 78.27 292.78 79.38C292.78 81.01 292.16 82.28 290.93 83.19C289.69 84.1 287.93 84.56 285.63 84.56H276.56V66.16H285.13C287.27 66.16 288.93 66.57 290.12 67.4C291.31 68.22 291.91 69.4 291.91 70.92C291.91 71.83 291.68 72.63 291.23 73.32C290.77 74.01 290.13 74.56 289.31 74.96ZM254.53 66.16H258.76V78.14L267.54 66.16H271.54V84.56H267.33V72.59L258.55 84.55H254.53V66.16ZM249.48 66.16V84.56H245.22V77.02H236.86V84.56H232.6V66.16H236.86V73.41H245.22V66.16H249.48ZM230.12 66.16L222.29 80.72C221.54 82.12 220.63 83.18 219.57 83.9C218.51 84.62 217.36 84.98 216.11 84.98C215.15 84.98 214.15 84.77 213.12 84.35L214.14 81.12C214.88 81.35 215.49 81.46 215.98 81.46C216.5 81.46 216.98 81.33 217.4 81.08C217.82 80.83 218.2 80.43 218.56 79.89L218.72 79.68L211.47 66.17H216.02L220.91 76.05L225.95 66.17H230.12V66.16ZM414.79 34.5C411.43 34.5 409.73 33.16 409.69 30.48H412.61C412.64 31.76 413.37 32.4 414.79 32.4C415.49 32.4 416.03 32.24 416.39 31.91C416.76 31.59 416.95 31.11 416.97 30.48H419.89C419.87 31.79 419.44 32.79 418.6 33.48C417.76 34.15 416.49 34.5 414.79 34.5ZM406.31 35.68H410.54V47.66L419.32 35.68H423.32V54.08H419.12V42.12L410.34 54.08H406.32V35.68H406.31ZM384.73 35.68H388.96V47.66L397.74 35.68H401.74V54.08H397.54V42.12L388.76 54.08H384.74V35.68H384.73ZM373.11 46.67H370.17V54.08H365.94V35.68H370.17V43.12H373.22L378.05 35.68H382.54L376.52 44.56L382.72 54.07H377.89L373.11 46.67ZM355.61 54.39C353.74 54.39 352.04 53.98 350.53 53.17C349.02 52.36 347.82 51.23 346.96 49.78C346.09 48.34 345.66 46.7 345.66 44.88C345.66 43.06 346.09 41.42 346.96 39.98C347.83 38.53 349.02 37.4 350.53 36.59C352.05 35.78 353.75 35.37 355.64 35.37C357.23 35.37 358.67 35.65 359.96 36.21C361.25 36.77 362.33 37.58 363.2 38.63L360.47 41.15C359.23 39.71 357.68 38.99 355.84 38.99C354.7 38.99 353.68 39.24 352.79 39.74C351.9 40.24 351.2 40.93 350.7 41.83C350.2 42.72 349.95 43.74 349.95 44.88C349.95 46.02 350.2 47.04 350.7 47.93C351.2 48.82 351.89 49.52 352.79 50.02C353.69 50.52 354.7 50.77 355.84 50.77C357.68 50.77 359.22 50.04 360.47 48.59L363.2 51.11C362.32 52.18 361.24 52.99 359.94 53.55C358.65 54.11 357.2 54.39 355.61 54.39ZM343.52 50.66V54.08H329.27V35.68H343.17V39.1H333.5V43.09H342.04V46.4H333.5V50.66H343.52ZM324.71 35.68V54.08H320.51V47.46C318.92 48.04 317.43 48.33 316.07 48.33C313.6 48.33 311.71 47.74 310.39 46.56C309.08 45.38 308.42 43.67 308.42 41.45V35.7H312.62V40.98C312.62 42.24 312.96 43.19 313.63 43.83C314.31 44.47 315.28 44.79 316.56 44.79C317.96 44.79 319.28 44.52 320.5 43.98V35.7H324.71V35.68ZM288.54 35.68H292.77V47.66L301.55 35.68H305.55V54.08H301.34V42.12L292.56 54.08H288.54V35.68ZM285.86 39.15H279.97V54.08H275.77V39.15H269.91V35.68H285.86V39.15ZM260.4 46.67H257.46V54.08H253.23V35.68H257.46V43.12H260.51L265.35 35.68H269.84L263.82 44.56L270.02 54.07H265.19L260.4 46.67ZM242.24 45.54C243.52 45.54 244.49 45.26 245.16 44.71C245.83 44.16 246.16 43.37 246.16 42.36C246.16 41.33 245.83 40.53 245.16 39.98C244.5 39.43 243.52 39.15 242.24 39.15H238.77V45.54H242.24ZM242.48 35.68C244.11 35.68 245.52 35.95 246.72 36.49C247.92 37.03 248.85 37.8 249.49 38.8C250.14 39.8 250.46 40.98 250.46 42.35C250.46 43.7 250.14 44.88 249.49 45.88C248.84 46.89 247.92 47.66 246.72 48.19C245.52 48.72 244.11 48.99 242.48 48.99H238.77V54.06H234.51V35.66H242.48V35.68ZM224.63 46.9L221.71 39.86L218.79 46.9H224.63ZM225.97 50.13H217.43L215.8 54.07H211.44L219.64 35.67H223.84L232.07 54.07H227.6L225.97 50.13ZM414.79 4.02C411.43 4.02 409.73 2.68 409.69 0H412.61C412.64 1.28 413.37 1.92 414.79 1.92C415.49 1.92 416.03 1.76 416.39 1.43C416.76 1.11 416.95 0.63 416.97 0H419.89C419.87 1.31 419.44 2.31 418.6 3C417.76 3.68 416.49 4.02 414.79 4.02ZM406.3 5.2H410.53V17.18L419.31 5.2H423.31V23.6H419.11V11.64L410.33 23.6H406.31V5.2H406.3ZM384.4 5.2H388.63V17.18L397.41 5.2H401.41V23.6H397.21V11.64L388.43 23.6H384.41V5.2H384.4ZM372.46 16.19H369.52V23.6H365.29V5.2H369.52V12.64H372.57L377.4 5.2H381.89L375.87 14.08L382.07 23.59H377.23L372.46 16.19ZM354.64 23.91C352.77 23.91 351.07 23.5 349.55 22.69C348.03 21.88 346.84 20.75 345.98 19.3C345.11 17.85 344.68 16.22 344.68 14.4C344.68 12.58 345.11 10.94 345.98 9.5C346.85 8.05 348.04 6.92 349.55 6.11C351.07 5.3 352.77 4.89 354.66 4.89C356.25 4.89 357.7 5.17 358.98 5.73C360.27 6.29 361.35 7.1 362.23 8.15L359.5 10.67C358.26 9.23 356.71 8.51 354.87 8.51C353.73 8.51 352.71 8.76 351.82 9.26C350.92 9.76 350.23 10.45 349.73 11.35C349.23 12.24 348.98 13.26 348.98 14.4C348.98 15.54 349.23 16.56 349.73 17.45C350.23 18.35 350.92 19.04 351.82 19.54C352.71 20.04 353.73 20.29 354.87 20.29C356.71 20.29 358.25 19.56 359.5 18.11L362.23 20.63C361.35 21.7 360.27 22.51 358.97 23.07C357.68 23.63 356.23 23.91 354.64 23.91ZM341.02 5.2V23.6H336.76V16.06H328.4V23.6H324.14V5.2H328.4V12.45H336.76V5.2H341.02ZM313.94 16.43L311.02 9.39L308.1 16.43H313.94ZM315.28 19.66H306.74L305.11 23.6H300.75L308.95 5.2H313.15L321.38 23.6H316.91L315.28 19.66ZM293.93 23.6L293.9 12.59L288.49 21.66H286.6L281.19 12.8V23.6H277.2V5.2H280.72L287.61 16.63L294.39 5.2H297.91L297.93 23.6H293.93ZM265.83 15.06C267.11 15.06 268.08 14.79 268.75 14.23C269.42 13.68 269.75 12.89 269.75 11.88C269.75 10.85 269.42 10.05 268.75 9.5C268.09 8.95 267.11 8.67 265.83 8.67H262.36V15.05H265.83V15.06ZM266.07 5.2C267.7 5.2 269.11 5.47 270.32 6.01C271.52 6.55 272.44 7.32 273.09 8.32C273.74 9.32 274.06 10.5 274.06 11.87C274.06 13.22 273.74 14.4 273.09 15.4C272.44 16.41 271.52 17.18 270.32 17.71C269.12 18.24 267.7 18.51 266.07 18.51H262.36V23.58H258.1V5.2H266.07ZM255.75 5.2L247.92 19.76C247.17 21.16 246.26 22.22 245.2 22.94C244.14 23.66 242.99 24.02 241.74 24.02C240.78 24.02 239.78 23.81 238.75 23.39L239.77 20.16C240.51 20.39 241.12 20.5 241.61 20.5C242.13 20.5 242.61 20.37 243.03 20.12C243.45 19.87 243.83 19.47 244.19 18.93L244.35 18.72L237.1 5.2H241.65L246.54 15.08L251.59 5.2H255.75ZM230.26 23.6L230.23 12.59L224.82 21.66H222.93L217.52 12.8V23.6H213.53V5.2H217.05L223.94 16.63L230.7 5.2H234.22L234.24 23.6H230.26Z" fill="white"/>
<path fill-rule="evenodd" clip-rule="evenodd" d="M138.71 25.87L169.39 84.98H192.73L151.31 5.17999H126.12L110.77 34.74L122.44 57.22L138.71 25.87Z" fill="white"/>
<path fill-rule="evenodd" clip-rule="evenodd" d="M71.2701 74.21L65.6801 84.97H42.3501L59.6001 51.73L71.2701 74.21ZM96.3601 25.87L127.04 84.97H150.38L108.96 5.16998H83.7701L68.4201 34.74L80.0901 57.22L96.3601 25.87Z" fill="white"/>
<path fill-rule="evenodd" clip-rule="evenodd" d="M54.01 25.87L84.69 84.98H108.03L113.62 74.21L101.95 51.73L96.36 62.5L66.61 5.17999H41.42L0 84.98H23.34L54.01 25.87Z" fill="white"/>
</g>
<defs>
<clipPath id="clip0_605_8">
<rect width="425.2" height="84.98" fill="white"/>
</clipPath>
</defs>
</svg>