<svg version="1.0" xmlns="http://www.w3.org/2000/svg" width="64.000000pt" height="64.000000pt" viewBox="0 0 64.000000 64.000000" preserveAspectRatio="xMidYMid meet">
<g transform="translate(0.000000,64.000000) scale(0.100000,-0.100000)">
<path d="M143 552 c-18 -11 -83 -96 -83 -108 0 -18 80 -114 95 -114 7 0 18 7
25 15 10 12 9 20 -5 41 l-16 25 146 -3 147 -3 34 -37 c28 -32 34 -45 34 -84 0
-88 -50 -133 -156 -142 -59 -4 -64 -7 -64 -28 0 -29 32 -39 98 -30 62 8 109
34 146 80 56 68 45 200 -20 257 -48 42 -79 49 -225 49 l-141 0 16 25 c9 13 16
29 16 34 0 15 -34 31 -47 23z"/>
</g>
</svg>
