<?xml version="1.0" standalone="no"?>
<!DOCTYPE svg PUBLIC "-//W3C//DTD SVG 20010904//EN"
 "http://www.w3.org/TR/2001/REC-SVG-20010904/DTD/svg10.dtd">
<svg version="1.0" xmlns="http://www.w3.org/2000/svg"
 width="64.000000pt" height="64.000000pt" viewBox="0 0 64.000000 64.000000"
 preserveAspectRatio="xMidYMid meet">

<g transform="translate(0.000000,64.000000) scale(0.100000,-0.100000)">
<path d="M140 435 c-74 -57 -136 -108 -138 -113 -3 -10 271 -222 287 -222 7 0
11 24 11 60 0 59 1 60 28 60 90 -1 249 -60 276 -102 6 -10 17 -18 25 -18 11 0
12 12 7 57 -18 149 -112 239 -266 252 l-65 6 -3 63 c-2 40 -7 62 -15 61 -7 0
-73 -47 -147 -104z"/>
</g>
</svg>
