<?xml version="1.0" standalone="no"?>
<!DOCTYPE svg PUBLIC "-//W3C//DTD SVG 20010904//EN"
 "http://www.w3.org/TR/2001/REC-SVG-20010904/DTD/svg10.dtd">
<svg version="1.0" xmlns="http://www.w3.org/2000/svg"
 width="64.000000pt" height="64.000000pt" viewBox="0 0 64.000000 64.000000"
 preserveAspectRatio="xMidYMid meet">

<g transform="translate(0.000000,64.000000) scale(0.100000,-0.100000)">
<path d="M210 590 c-11 -11 -20 -24 -20 -29 0 -5 -23 -11 -51 -13 -28 -3 -55
-12 -60 -19 -15 -23 -10 -57 10 -71 16 -11 22 -40 36 -173 21 -202 28 -229 60
-243 34 -16 236 -16 270 0 32 14 39 41 60 243 14 133 20 162 36 173 20 14 25
48 10 71 -5 7 -32 16 -60 19 -28 2 -51 8 -51 13 0 5 -9 18 -20 29 -17 17 -33
20 -110 20 -77 0 -93 -3 -110 -20z m208 -27 c3 -10 -21 -13 -97 -13 -93 0
-113 5 -94 24 13 12 186 2 191 -11z m120 -65 l-3 -23 -215 0 -215 0 -3 23 -3
22 221 0 221 0 -3 -22z m-32 -70 c-3 -13 -13 -93 -22 -178 -9 -85 -20 -163
-25 -172 -9 -16 -26 -18 -139 -18 -113 0 -130 2 -139 18 -5 9 -16 87 -25 172
-9 85 -19 165 -22 178 l-4 22 190 0 190 0 -4 -22z"/>
<path d="M214 303 c11 -131 18 -173 29 -173 6 0 7 36 3 103 -8 118 -14 147
-28 147 -7 0 -8 -27 -4 -77z"/>
<path d="M310 255 c0 -77 4 -125 10 -125 6 0 10 48 10 125 0 77 -4 125 -10
125 -6 0 -10 -48 -10 -125z"/>
<path d="M407 358 c-12 -50 -19 -228 -10 -228 11 0 18 42 29 173 4 50 3 77 -4
77 -5 0 -12 -10 -15 -22z"/>
</g>
</svg>
