<?xml version="1.0" standalone="no"?>
<!DOCTYPE svg PUBLIC "-//W3C//DTD SVG 20010904//EN"
 "http://www.w3.org/TR/2001/REC-SVG-20010904/DTD/svg10.dtd">
<svg version="1.0" xmlns="http://www.w3.org/2000/svg"
 width="64.000000pt" height="64.000000pt" viewBox="0 0 64.000000 64.000000"
 preserveAspectRatio="xMidYMid meet">

<g transform="translate(0.000000,64.000000) scale(0.100000,-0.100000)">
<path d="M278 403 l-236 -238 -22 -78 c-12 -44 -19 -81 -17 -84 3 -2 40 5 84
17 l78 22 238 236 c132 132 237 245 237 255 0 26 -79 107 -104 107 -14 0 -97
-76 -258 -237z m304 180 c21 -20 38 -41 38 -47 0 -5 -10 -20 -22 -33 l-22 -23
-48 47 -48 47 22 23 c29 31 36 29 80 -14z m-29 -126 c-3 -5 -27 13 -54 39 -26
26 -46 52 -42 57 3 5 27 -13 54 -39 26 -26 46 -52 42 -57z m-275 -124 c-115
-115 -180 -173 -188 -168 -8 5 46 66 166 186 119 120 182 175 188 169 7 -7
-48 -69 -166 -187z m208 146 c7 -13 -333 -359 -353 -359 -7 0 -13 6 -13 12 0
13 339 358 352 358 4 0 10 -5 14 -11z m38 -37 c3 -5 -75 -88 -173 -186 -119
-119 -181 -174 -186 -166 -5 8 53 73 166 186 96 96 177 174 181 174 4 0 9 -4
12 -8z m-426 -319 c2 -14 12 -23 25 -25 31 -4 29 -40 -2 -48 -17 -4 -32 2 -50
20 -26 24 -27 30 -16 66 7 22 39 13 43 -13z m-34 -84 c-8 -14 -34 -11 -34 4 0
8 3 17 7 20 9 9 34 -13 27 -24z"/>
</g>
</svg>
