<svg version="1.0" xmlns="http://www.w3.org/2000/svg" width="32.000000pt" height="32.000000pt" viewBox="0 0 32.000000 32.000000" preserveAspectRatio="xMidYMid meet">
<g transform="translate(0.000000,32.000000) scale(0.100000,-0.100000)" stroke="#4D648D" fill="#4D648D">
<path d="M170 278 c-19 -21 -23 -21 -66 -10 -26 7 -48 11 -49 10 -8 -8 -53
-193 -50 -199 3 -4 27 -12 55 -19 28 -7 53 -16 56 -21 3 -5 9 -7 13 -4 5 2 23
0 41 -5 27 -8 33 -7 37 10 3 12 21 22 54 30 27 7 51 15 54 19 2 4 -8 52 -22
105 -25 91 -28 97 -49 92 -13 -4 -26 -2 -29 4 -10 15 -22 12 -45 -12z m40 -8
c0 -5 -4 -10 -9 -10 -6 0 -13 5 -16 10 -3 6 1 10 9 10 9 0 16 -4 16 -10z m69
-73 c11 -42 21 -83 21 -90 0 -11 -167 -64 -175 -55 -3 4 -45 163 -45 171 0 12
84 30 88 18 2 -7 13 -4 30 8 24 16 54 30 58 27 1 0 11 -36 23 -79z m-184 53
c-3 -5 -13 -10 -21 -10 -11 0 -13 -6 -8 -22 4 -13 15 -54 25 -91 16 -63 16
-67 1 -63 -10 3 -29 8 -44 12 -30 7 -34 22 -18 70 5 16 14 48 20 72 8 32 16
42 31 42 11 0 17 -4 14 -10z m102 -206 c-3 -3 -12 -4 -19 -1 -8 3 -5 6 6 6 11
1 17 -2 13 -5z"/>
<path d="M165 193 c-27 -9 -45 -17 -40 -19 6 -2 37 5 70 15 33 11 51 19 40 19
-11 1 -42 -6 -70 -15z"/>
<path d="M188 172 c-77 -21 -75 -34 2 -15 33 9 60 19 60 24 0 5 -1 8 -2 8 -2
-1 -29 -9 -60 -17z"/>
<path d="M190 140 c-30 -10 -49 -18 -42 -19 22 -2 102 21 108 30 7 12 -2 11
-66 -11z"/>
<path d="M171 109 c-18 -6 -31 -12 -29 -15 8 -7 68 8 68 17 0 5 -1 9 -2 8 -2
0 -18 -5 -37 -10z"/>
</g>
</svg>
