<?xml version="1.0" standalone="no"?>
<!DOCTYPE svg PUBLIC "-//W3C//DTD SVG 20010904//EN"
 "http://www.w3.org/TR/2001/REC-SVG-20010904/DTD/svg10.dtd">
<svg version="1.0" xmlns="http://www.w3.org/2000/svg"
 width="64.000000pt" height="64.000000pt" viewBox="0 0 64.000000 64.000000"
 preserveAspectRatio="xMidYMid meet">

<g transform="translate(0.000000,64.000000) scale(0.100000,-0.100000)">
<path d="M22 617 c-21 -23 -22 -30 -22 -298 0 -275 0 -276 23 -297 23 -21 30
-22 298 -22 275 0 276 0 297 23 21 23 22 31 22 253 l0 230 -68 67 -68 67 -230
0 c-228 0 -231 0 -252 -23z m98 -102 c0 -78 2 -88 25 -110 23 -24 29 -25 155
-25 126 0 132 1 155 25 23 22 25 32 25 110 0 47 4 85 8 85 4 0 31 -24 60 -53
l52 -53 -2 -225 -3 -224 -37 -3 -38 -3 0 106 c0 99 -2 107 -25 130 -23 24 -28
25 -175 25 -147 0 -152 -1 -175 -25 -23 -23 -25 -31 -25 -130 l0 -106 -37 3
-38 3 -3 265 c-1 146 0 270 3 277 2 7 20 13 40 13 l35 0 0 -85z m318 -2 l-3
-88 -135 0 -135 0 -3 88 -3 87 141 0 141 0 -3 -87z m40 -365 l3 -108 -161 0
-160 0 0 103 c0 57 3 107 7 111 4 3 75 5 157 4 l151 -3 3 -107z"/>
<path d="M364 547 c-10 -28 0 -82 16 -82 11 0 15 12 15 44 0 44 -19 68 -31 38z"/>
</g>
</svg>
