<svg version="1.0" xmlns="http://www.w3.org/2000/svg"
 width="100.000000pt" height="100.000000pt" viewBox="0 0 100.000000 100.000000"
 preserveAspectRatio="xMidYMid meet">

<g transform="translate(0.000000,100.000000) scale(0.100000,-0.100000)">
<path d="M406 890 c-63 -16 -153 -70 -197 -117 -58 -63 -99 -157 -102 -229 -2
-47 1 -59 13 -59 10 0 17 16 23 55 18 124 99 235 211 287 52 24 74 28 146 28
72 0 94 -4 145 -28 33 -15 82 -49 108 -75 l48 -47 -78 -5 c-60 -4 -78 -8 -78
-20 0 -12 20 -16 108 -18 l108 -3 -3 108 c-2 88 -6 108 -18 108 -11 0 -16 -15
-18 -63 l-3 -64 -45 42 c-70 64 -158 101 -252 106 -42 2 -94 -1 -116 -6z"/>
<path d="M866 508 c-3 -7 -7 -34 -11 -59 -15 -113 -100 -225 -210 -276 -51
-24 -73 -28 -145 -28 -72 0 -94 4 -145 28 -33 15 -82 49 -108 75 l-48 47 78 5
c60 4 78 8 78 20 0 12 -20 16 -108 18 l-108 3 3 -108 c2 -88 6 -108 18 -108
11 0 16 15 18 63 l3 64 45 -42 c25 -23 75 -56 112 -73 61 -29 76 -32 163 -32
90 0 99 2 171 37 90 45 148 103 189 193 33 69 45 174 22 182 -7 3 -15 -1 -17
-9z"/>
</g>
</svg>
